<svg width="261" height="14" viewBox="0 0 261 14" fill="none" xmlns="http://www.w3.org/2000/svg">
<rect x="17.5742" y="5.28564" width="4.09456" height="0.584937" rx="0.292469" transform="rotate(90 17.5742 5.28564)" fill="#999999"/>
<path d="M253.773 0.459711C257.472 0.459711 260.47 3.4583 260.47 7.15725C260.47 10.8562 257.472 13.8548 253.773 13.8548L33.2448 13.8548C31.1216 13.8548 29.0047 13.6224 26.932 13.1618L17.5459 11.076L17.5459 3.23847L26.932 1.15267C29.0047 0.692074 31.1216 0.459701 33.2448 0.459701L253.773 0.459711Z" fill="white"/>
<path d="M253.773 0.459711C257.472 0.459711 260.47 3.4583 260.47 7.15725C260.47 10.8562 257.472 13.8548 253.773 13.8548L33.2448 13.8548C31.1216 13.8548 29.0047 13.6224 26.932 13.1618L17.5459 11.076L17.5459 3.23847L26.932 1.15267C29.0047 0.692074 31.1216 0.459701 33.2448 0.459701L253.773 0.459711Z" fill="url(#paint0_linear_1361_21787)" fill-opacity="0.2"/>
<path d="M253.773 0.459711C257.472 0.459711 260.47 3.4583 260.47 7.15725C260.47 10.8562 257.472 13.8548 253.773 13.8548L33.2448 13.8548C31.1216 13.8548 29.0047 13.6224 26.932 13.1618L17.5459 11.076L17.5459 3.23847L26.932 1.15267C29.0047 0.692074 31.1216 0.459701 33.2448 0.459701L253.773 0.459711Z" fill="url(#paint1_linear_1361_21787)" fill-opacity="0.2"/>
<path d="M253.773 0.459711C257.472 0.459711 260.47 3.4583 260.47 7.15725C260.47 10.8562 257.472 13.8548 253.773 13.8548L33.2448 13.8548C31.1216 13.8548 29.0047 13.6224 26.932 13.1618L17.5459 11.076L17.5459 3.23847L26.932 1.15267C29.0047 0.692074 31.1216 0.459701 33.2448 0.459701L253.773 0.459711Z" fill="url(#paint2_linear_1361_21787)" fill-opacity="0.2"/>
<path d="M253.773 0.459711C257.472 0.459711 260.47 3.4583 260.47 7.15725C260.47 10.8562 257.472 13.8548 253.773 13.8548L33.2448 13.8548C31.1216 13.8548 29.0047 13.6224 26.932 13.1618L17.5459 11.076L17.5459 3.23847L26.932 1.15267C29.0047 0.692074 31.1216 0.459701 33.2448 0.459701L253.773 0.459711Z" fill="url(#paint3_linear_1361_21787)" fill-opacity="0.2"/>
<path d="M253.773 0.459711C257.472 0.459711 260.47 3.4583 260.47 7.15725C260.47 10.8562 257.472 13.8548 253.773 13.8548L33.2448 13.8548C31.1216 13.8548 29.0047 13.6224 26.932 13.1618L17.5459 11.076L17.5459 3.23847L26.932 1.15267C29.0047 0.692074 31.1216 0.459701 33.2448 0.459701L253.773 0.459711Z" stroke="#E4E4E4" stroke-width="0.292469"/>
<path d="M4.95366 6.38679L16.6952 3.89809C16.8771 3.85953 17.0483 3.99827 17.0483 4.1842L17.0483 10.3061C17.0483 10.492 16.8771 10.6307 16.6952 10.5922L4.95366 8.10346C4.02636 7.90692 4.02636 6.58334 4.95366 6.38679Z" fill="white"/>
<path d="M4.95366 6.38679L16.6952 3.89809C16.8771 3.85953 17.0483 3.99827 17.0483 4.1842L17.0483 10.3061C17.0483 10.492 16.8771 10.6307 16.6952 10.5922L4.95366 8.10346C4.02636 7.90692 4.02636 6.58334 4.95366 6.38679Z" fill="url(#paint4_linear_1361_21787)" fill-opacity="0.15"/>
<path d="M4.95366 6.38679L16.6952 3.89809C16.8771 3.85953 17.0483 3.99827 17.0483 4.1842L17.0483 10.3061C17.0483 10.492 16.8771 10.6307 16.6952 10.5922L4.95366 8.10346C4.02636 7.90692 4.02636 6.58334 4.95366 6.38679Z" fill="url(#paint5_linear_1361_21787)" fill-opacity="0.15"/>
<path d="M4.95366 6.38679L16.6952 3.89809C16.8771 3.85953 17.0483 3.99827 17.0483 4.1842L17.0483 10.3061C17.0483 10.492 16.8771 10.6307 16.6952 10.5922L4.95366 8.10346C4.02636 7.90692 4.02636 6.58334 4.95366 6.38679Z" fill="url(#paint6_linear_1361_21787)" fill-opacity="0.2"/>
<defs>
<linearGradient id="paint0_linear_1361_21787" x1="22.4009" y1="13.767" x2="26.0567" y2="7.04024" gradientUnits="userSpaceOnUse">
<stop/>
<stop offset="1" stop-color="#FAFAFA"/>
</linearGradient>
<linearGradient id="paint1_linear_1361_21787" x1="129.152" y1="14.0595" x2="129.152" y2="0.313465" gradientUnits="userSpaceOnUse">
<stop stop-color="#797979"/>
<stop offset="0.333333" stop-color="#FFFBFB"/>
<stop offset="0.661458" stop-color="white"/>
<stop offset="1" stop-color="#9D9D9D"/>
</linearGradient>
<linearGradient id="paint2_linear_1361_21787" x1="260.617" y1="7.15725" x2="241.46" y2="7.04025" gradientUnits="userSpaceOnUse">
<stop/>
<stop offset="0.291667" stop-color="#BBBBBB" stop-opacity="0"/>
</linearGradient>
<linearGradient id="paint3_linear_1361_21787" x1="251.55" y1="14.6444" x2="251.258" y2="9.67247" gradientUnits="userSpaceOnUse">
<stop/>
<stop offset="1" stop-opacity="0"/>
</linearGradient>
<linearGradient id="paint4_linear_1361_21787" x1="4.94013" y1="5.92902" x2="8.67424" y2="1.17231" gradientUnits="userSpaceOnUse">
<stop stop-color="#949494"/>
<stop offset="1" stop-color="#CECECE"/>
</linearGradient>
<linearGradient id="paint5_linear_1361_21787" x1="16.8729" y1="7.24513" x2="13.3632" y2="7.24513" gradientUnits="userSpaceOnUse">
<stop offset="0.046875" stop-color="white" stop-opacity="0.828125"/>
<stop offset="0.255208" stop-color="#575757" stop-opacity="0.684319"/>
<stop offset="1" stop-color="#464646" stop-opacity="0.25"/>
</linearGradient>
<linearGradient id="paint6_linear_1361_21787" x1="14.9426" y1="9.08768" x2="15.118" y2="6.27998" gradientUnits="userSpaceOnUse">
<stop stop-color="#3F3F3F"/>
<stop offset="0.255208" stop-opacity="0.744792"/>
<stop offset="1" stop-color="#ACACAC" stop-opacity="0"/>
</linearGradient>
</defs>
</svg>
