<svg width="1382" height="1090" viewBox="0 0 1382 1090" fill="none" xmlns="http://www.w3.org/2000/svg">
<rect x="7.58301" y="1084.55" width="1044.8" height="1369.3" rx="53.0738" transform="rotate(-90 7.58301 1084.55)" fill="#0B0B0B"/>
<rect x="5.30842" y="1086.83" width="1049.35" height="1373.85" rx="55.3484" transform="rotate(-90 5.30842 1086.83)" stroke="url(#paint0_linear_1368_27523)" stroke-width="4.54919"/>
<rect y="156.517" width="59.8976" height="3.03279" transform="rotate(-90 0 156.517)" fill="url(#paint1_linear_1368_27523)"/>
<rect x="147.09" y="35.2051" width="47.7664" height="3.03279" transform="rotate(180 147.09 35.2051)" fill="url(#paint2_linear_1368_27523)"/>
<rect x="207.745" y="35.2051" width="47.7664" height="3.03279" transform="rotate(180 207.745 35.2051)" fill="url(#paint3_linear_1368_27523)"/>
<circle cx="24.6369" cy="562.532" r="6.44468" transform="rotate(90 24.6369 562.532)" fill="url(#paint4_linear_1368_27523)"/>
<circle cx="24.6374" cy="562.532" r="4.17009" transform="rotate(-90 24.6374 562.532)" fill="url(#paint5_radial_1368_27523)"/>
<g filter="url(#filter0_f_1368_27523)">
<path d="M21.227 562.911C21.227 563.715 21.5865 564.487 22.2263 565.056C22.8662 565.624 23.734 565.944 24.6389 565.944C25.5438 565.944 26.4116 565.624 27.0515 565.056C27.6913 564.487 28.0508 563.715 28.0508 562.911L24.6389 562.911L21.227 562.911Z" fill="url(#paint6_linear_1368_27523)"/>
</g>
<g filter="url(#filter1_f_1368_27523)">
<circle cx="23.1202" cy="563.29" r="1.1373" transform="rotate(-90 23.1202 563.29)" fill="#50326D"/>
</g>
<g filter="url(#filter2_f_1368_27523)">
<path d="M28.0503 562.153C28.0503 561.349 27.6909 560.577 27.051 560.008C26.4112 559.44 25.5433 559.12 24.6385 559.12C23.7336 559.12 22.8657 559.44 22.2259 560.008C21.586 560.577 21.2266 561.349 21.2266 562.153L24.6385 562.153L28.0503 562.153Z" fill="url(#paint7_linear_1368_27523)"/>
</g>
<g filter="url(#filter3_f_1368_27523)">
<circle cx="26.1539" cy="561.774" r="1.1373" transform="rotate(-90 26.1539 561.774)" fill="url(#paint8_linear_1368_27523)"/>
</g>
<circle cx="24.2594" cy="594.755" r="9.85657" transform="rotate(-90 24.2594 594.755)" fill="black"/>
<circle cx="24.2594" cy="630.391" r="9.85657" transform="rotate(-90 24.2594 630.391)" fill="black"/>
<circle cx="24.2594" cy="498.464" r="9.85657" transform="rotate(-90 24.2594 498.464)" fill="black"/>
<circle cx="24.6395" cy="527.655" r="2.65369" transform="rotate(-90 24.6395 527.655)" fill="black"/>
<rect x="373.216" y="12.8892" width="10.6148" height="1.51639" rx="0.758197" transform="rotate(90 373.216 12.8892)" fill="#999999"/>
<path d="M985.538 0.379098C995.127 0.379098 1002.9 8.15265 1002.9 17.7418C1002.9 27.331 995.127 35.1045 985.537 35.1045L413.839 35.1045C408.335 35.1045 402.847 34.5021 397.474 33.3081L373.141 27.9008L373.141 7.58277L397.474 2.17553C402.847 0.981479 408.335 0.379073 413.839 0.379073L985.538 0.379098Z" fill="white"/>
<path d="M985.538 0.379098C995.127 0.379098 1002.9 8.15265 1002.9 17.7418C1002.9 27.331 995.127 35.1045 985.537 35.1045L413.839 35.1045C408.335 35.1045 402.847 34.5021 397.474 33.3081L373.141 27.9008L373.141 7.58277L397.474 2.17553C402.847 0.981479 408.335 0.379073 413.839 0.379073L985.538 0.379098Z" fill="url(#paint9_linear_1368_27523)" fill-opacity="0.2"/>
<path d="M985.538 0.379098C995.127 0.379098 1002.9 8.15265 1002.9 17.7418C1002.9 27.331 995.127 35.1045 985.537 35.1045L413.839 35.1045C408.335 35.1045 402.847 34.5021 397.474 33.3081L373.141 27.9008L373.141 7.58277L397.474 2.17553C402.847 0.981479 408.335 0.379073 413.839 0.379073L985.538 0.379098Z" fill="url(#paint10_linear_1368_27523)" fill-opacity="0.2"/>
<path d="M985.538 0.379098C995.127 0.379098 1002.9 8.15265 1002.9 17.7418C1002.9 27.331 995.127 35.1045 985.537 35.1045L413.839 35.1045C408.335 35.1045 402.847 34.5021 397.474 33.3081L373.141 27.9008L373.141 7.58277L397.474 2.17553C402.847 0.981479 408.335 0.379073 413.839 0.379073L985.538 0.379098Z" fill="url(#paint11_linear_1368_27523)" fill-opacity="0.2"/>
<path d="M985.538 0.379098C995.127 0.379098 1002.9 8.15265 1002.9 17.7418C1002.9 27.331 995.127 35.1045 985.537 35.1045L413.839 35.1045C408.335 35.1045 402.847 34.5021 397.474 33.3081L373.141 27.9008L373.141 7.58277L397.474 2.17553C402.847 0.981479 408.335 0.379073 413.839 0.379073L985.538 0.379098Z" fill="url(#paint12_linear_1368_27523)" fill-opacity="0.2"/>
<path d="M985.538 0.379098C995.127 0.379098 1002.9 8.15265 1002.9 17.7418C1002.9 27.331 995.127 35.1045 985.537 35.1045L413.839 35.1045C408.335 35.1045 402.847 34.5021 397.474 33.3081L373.141 27.9008L373.141 7.58277L397.474 2.17553C402.847 0.981479 408.335 0.379073 413.839 0.379073L985.538 0.379098Z" stroke="#E4E4E4" stroke-width="0.758198"/>
<path d="M340.498 15.7439L370.937 9.29217C371.408 9.19223 371.852 9.55188 371.852 10.0339L371.852 25.9042C371.852 26.3862 371.408 26.7459 370.937 26.6459L340.498 20.1942C338.094 19.6847 338.094 16.2534 340.498 15.7439Z" fill="white"/>
<path d="M340.498 15.7439L370.937 9.29217C371.408 9.19223 371.852 9.55188 371.852 10.0339L371.852 25.9042C371.852 26.3862 371.408 26.7459 370.937 26.6459L340.498 20.1942C338.094 19.6847 338.094 16.2534 340.498 15.7439Z" fill="url(#paint13_linear_1368_27523)" fill-opacity="0.15"/>
<path d="M340.498 15.7439L370.937 9.29217C371.408 9.19223 371.852 9.55188 371.852 10.0339L371.852 25.9042C371.852 26.3862 371.408 26.7459 370.937 26.6459L340.498 20.1942C338.094 19.6847 338.094 16.2534 340.498 15.7439Z" fill="url(#paint14_linear_1368_27523)" fill-opacity="0.15"/>
<path d="M340.498 15.7439L370.937 9.29217C371.408 9.19223 371.852 9.55188 371.852 10.0339L371.852 25.9042C371.852 26.3862 371.408 26.7459 370.937 26.6459L340.498 20.1942C338.094 19.6847 338.094 16.2534 340.498 15.7439Z" fill="url(#paint15_linear_1368_27523)" fill-opacity="0.2"/>
<defs>
<filter id="filter0_f_1368_27523" x="19.7107" y="561.395" width="9.85652" height="6.06551" filterUnits="userSpaceOnUse" color-interpolation-filters="sRGB">
<feFlood flood-opacity="0" result="BackgroundImageFix"/>
<feBlend mode="normal" in="SourceGraphic" in2="BackgroundImageFix" result="shape"/>
<feGaussianBlur stdDeviation="0.758198" result="effect1_foregroundBlur_1368_27523"/>
</filter>
<filter id="filter1_f_1368_27523" x="19.7083" y="559.878" width="6.8236" height="6.8236" filterUnits="userSpaceOnUse" color-interpolation-filters="sRGB">
<feFlood flood-opacity="0" result="BackgroundImageFix"/>
<feBlend mode="normal" in="SourceGraphic" in2="BackgroundImageFix" result="shape"/>
<feGaussianBlur stdDeviation="1.1373" result="effect1_foregroundBlur_1368_27523"/>
</filter>
<filter id="filter2_f_1368_27523" x="19.7102" y="557.604" width="9.85652" height="6.06551" filterUnits="userSpaceOnUse" color-interpolation-filters="sRGB">
<feFlood flood-opacity="0" result="BackgroundImageFix"/>
<feBlend mode="normal" in="SourceGraphic" in2="BackgroundImageFix" result="shape"/>
<feGaussianBlur stdDeviation="0.758198" result="effect1_foregroundBlur_1368_27523"/>
</filter>
<filter id="filter3_f_1368_27523" x="24.2584" y="559.879" width="3.79081" height="3.79081" filterUnits="userSpaceOnUse" color-interpolation-filters="sRGB">
<feFlood flood-opacity="0" result="BackgroundImageFix"/>
<feBlend mode="normal" in="SourceGraphic" in2="BackgroundImageFix" result="shape"/>
<feGaussianBlur stdDeviation="0.379099" result="effect1_foregroundBlur_1368_27523"/>
</filter>
<linearGradient id="paint0_linear_1368_27523" x1="47.3884" y1="1208.55" x2="524.786" y2="1812.76" gradientUnits="userSpaceOnUse">
<stop stop-color="#B3B3B3"/>
<stop offset="1" stop-color="#6C6C6C"/>
</linearGradient>
<linearGradient id="paint1_linear_1368_27523" x1="-8.30025e-07" y1="157.865" x2="59.8976" y2="157.865" gradientUnits="userSpaceOnUse">
<stop stop-color="#B0B0B0"/>
<stop offset="0.0885417" stop-color="#636363"/>
<stop offset="0.177083" stop-color="#C2C2C2"/>
<stop offset="0.75" stop-color="#C2C2C2"/>
<stop offset="0.864583" stop-color="#EFEEEE"/>
<stop offset="1" stop-color="#6C6C6C"/>
</linearGradient>
<linearGradient id="paint2_linear_1368_27523" x1="147.09" y1="36.553" x2="194.856" y2="36.553" gradientUnits="userSpaceOnUse">
<stop stop-color="#B0B0B0"/>
<stop offset="0.0885417" stop-color="#636363"/>
<stop offset="0.177083" stop-color="#C2C2C2"/>
<stop offset="0.75" stop-color="#C2C2C2"/>
<stop offset="0.864583" stop-color="#EFEEEE"/>
<stop offset="1" stop-color="#6C6C6C"/>
</linearGradient>
<linearGradient id="paint3_linear_1368_27523" x1="207.745" y1="36.553" x2="255.512" y2="36.553" gradientUnits="userSpaceOnUse">
<stop stop-color="#B0B0B0"/>
<stop offset="0.0885417" stop-color="#636363"/>
<stop offset="0.177083" stop-color="#C2C2C2"/>
<stop offset="0.75" stop-color="#C2C2C2"/>
<stop offset="0.864583" stop-color="#EFEEEE"/>
<stop offset="1" stop-color="#6C6C6C"/>
</linearGradient>
<linearGradient id="paint4_linear_1368_27523" x1="19.3295" y1="559.12" x2="29.5651" y2="565.186" gradientUnits="userSpaceOnUse">
<stop stop-color="#222222"/>
<stop offset="1" stop-color="#0B0B0B"/>
</linearGradient>
<radialGradient id="paint5_radial_1368_27523" cx="0" cy="0" r="1" gradientUnits="userSpaceOnUse" gradientTransform="translate(24.6374 562.153) rotate(37.875) scale(4.32239 4.35433)">
<stop stop-color="#152457"/>
<stop offset="1"/>
</radialGradient>
<linearGradient id="paint6_linear_1368_27523" x1="21.9852" y1="565.186" x2="28.0508" y2="563.29" gradientUnits="userSpaceOnUse">
<stop stop-color="#20569B"/>
<stop offset="1" stop-color="#061127"/>
</linearGradient>
<linearGradient id="paint7_linear_1368_27523" x1="27.2921" y1="559.878" x2="21.2266" y2="561.774" gradientUnits="userSpaceOnUse">
<stop stop-color="#3D6495"/>
<stop offset="1" stop-color="#061127"/>
</linearGradient>
<linearGradient id="paint8_linear_1368_27523" x1="27.6703" y1="562.532" x2="26.1539" y2="560.637" gradientUnits="userSpaceOnUse">
<stop stop-color="#3291AF"/>
<stop offset="1" stop-color="#3291AF" stop-opacity="0"/>
</linearGradient>
<linearGradient id="paint9_linear_1368_27523" x1="385.727" y1="34.877" x2="395.205" y2="17.4385" gradientUnits="userSpaceOnUse">
<stop/>
<stop offset="1" stop-color="#FAFAFA"/>
</linearGradient>
<linearGradient id="paint10_linear_1368_27523" x1="662.469" y1="35.6353" x2="662.469" y2="-2.97364e-05" gradientUnits="userSpaceOnUse">
<stop stop-color="#797979"/>
<stop offset="0.333333" stop-color="#FFFBFB"/>
<stop offset="0.661458" stop-color="white"/>
<stop offset="1" stop-color="#9D9D9D"/>
</linearGradient>
<linearGradient id="paint11_linear_1368_27523" x1="1003.28" y1="17.7418" x2="953.617" y2="17.4385" gradientUnits="userSpaceOnUse">
<stop/>
<stop offset="0.291667" stop-color="#BBBBBB" stop-opacity="0"/>
</linearGradient>
<linearGradient id="paint12_linear_1368_27523" x1="979.775" y1="37.1517" x2="979.017" y2="24.2623" gradientUnits="userSpaceOnUse">
<stop/>
<stop offset="1" stop-opacity="0"/>
</linearGradient>
<linearGradient id="paint13_linear_1368_27523" x1="340.463" y1="14.5572" x2="350.143" y2="2.22585" gradientUnits="userSpaceOnUse">
<stop stop-color="#949494"/>
<stop offset="1" stop-color="#CECECE"/>
</linearGradient>
<linearGradient id="paint14_linear_1368_27523" x1="371.397" y1="17.9691" x2="362.299" y2="17.9691" gradientUnits="userSpaceOnUse">
<stop offset="0.046875" stop-color="white" stop-opacity="0.828125"/>
<stop offset="0.255208" stop-color="#575757" stop-opacity="0.684319"/>
<stop offset="1" stop-color="#464646" stop-opacity="0.25"/>
</linearGradient>
<linearGradient id="paint15_linear_1368_27523" x1="366.393" y1="22.7457" x2="366.848" y2="15.467" gradientUnits="userSpaceOnUse">
<stop stop-color="#3F3F3F"/>
<stop offset="0.255208" stop-opacity="0.744792"/>
<stop offset="1" stop-color="#ACACAC" stop-opacity="0"/>
</linearGradient>
</defs>
</svg>
