<svg width="200" height="61" viewBox="0 0 200 61" fill="none" xmlns="http://www.w3.org/2000/svg">
<path d="M30.9705 59.2267L20.6694 53.8695C21.3942 54.2459 22.2529 54.4055 23.1738 54.2813C25.7646 53.9333 27.8735 51.4755 27.879 48.8052L38.18 54.1624C38.175 56.834 36.0661 59.2914 33.4749 59.639C32.554 59.7627 31.6948 59.6031 30.9705 59.2267Z" fill="#FE7F3C"/>
<path d="M30.9822 59.2405L20.6812 53.8833C20.7282 53.9078 20.7763 53.9314 20.8243 53.9546L31.1253 59.3118C31.0773 59.289 31.0293 59.2659 30.9822 59.2405Z" fill="#FE7F3C"/>
<path d="M31.1223 59.3113L20.8213 53.9541C21.0568 54.0651 21.3041 54.153 21.5634 54.216L31.8645 59.5732C31.6052 59.5094 31.3569 59.4211 31.1223 59.3113Z" fill="#FE7F3C"/>
<path d="M31.864 59.5724L21.563 54.2152C22.0673 54.3389 22.6133 54.3713 23.1817 54.2939C23.6581 54.2301 24.1172 54.095 24.5502 53.9009L34.8513 59.2581C34.4183 59.4522 33.9578 59.5877 33.4827 59.6516C32.9134 59.7276 32.3679 59.6966 31.8636 59.5724H31.864Z" fill="#FE7F3C"/>
<path d="M34.8513 59.2573L24.5503 53.9001C24.8155 53.7807 25.0697 53.6399 25.313 53.4795L35.6145 58.8367C35.3722 58.9972 35.1166 59.1379 34.8518 59.2573H34.8513Z" fill="#FE7F3C"/>
<path d="M35.6233 58.8407L25.3223 53.4835C25.5207 53.3532 25.71 53.2085 25.8906 53.0537L36.1917 58.4109C36.0111 58.5666 35.8218 58.7104 35.6233 58.8411V58.8407Z" fill="#FE7F3C"/>
<path d="M36.1897 58.409L25.8882 53.0517C26.0574 52.907 26.217 52.7514 26.3683 52.5879L36.6698 57.9451C36.5185 58.1095 36.3584 58.2643 36.1897 58.409Z" fill="#FE7F3C"/>
<path d="M36.6707 57.9445L26.3696 52.5873C26.5196 52.4242 26.6623 52.252 26.794 52.0728L37.095 57.43C36.9633 57.6092 36.822 57.781 36.6707 57.9441V57.9445Z" fill="#FE7F3C"/>
<path d="M37.0882 57.4343L26.7871 52.077C26.9266 51.8864 27.0551 51.6884 27.1698 51.4829L37.4713 56.8401C37.3552 57.0456 37.2276 57.245 37.0882 57.4343Z" fill="#FE7F3C"/>
<path d="M37.4783 56.8381L27.1772 51.4809C27.314 51.2378 27.4333 50.9851 27.5334 50.7241L37.835 56.0813C37.7348 56.3423 37.615 56.5946 37.4783 56.8381Z" fill="#FE7F3C"/>
<path d="M37.8328 56.0771L27.5312 50.7199C27.7631 50.1175 27.8916 49.4735 27.8925 48.8164L38.1935 54.1736C38.1926 54.8307 38.0641 55.4747 37.8323 56.0771H37.8328Z" fill="#FE7F3C"/>
<path d="M30.8159 59.4961L20.5148 54.1389C19.1215 53.414 18.1965 51.932 18.1997 50.105L28.5008 55.4622C28.4971 57.2888 29.4217 58.7712 30.8159 59.4961Z" fill="#FBF8E7"/>
<path d="M30.8261 59.5L20.5251 54.1428C19.1318 53.4179 18.2068 51.9359 18.21 50.1089L28.511 55.4661C28.5074 57.2927 29.4319 58.7751 30.8261 59.5Z" fill="#FBF8E7"/>
<path d="M38.1814 54.16L27.8804 48.8019L27.9951 0.0356445L38.2962 5.39374L38.1814 54.16Z" fill="#FE7F3C"/>
<path d="M28.5008 55.4633L18.1997 50.1061L18.2546 22.1221L28.5556 27.4793L28.5008 55.4633Z" fill="#FBF8E7"/>
<path d="M12.8538 59.7239L2.55273 54.3667C3.30492 54.7584 4.19748 54.9232 5.1536 54.7947C7.83998 54.4332 10.0293 51.8875 10.0353 49.1157L20.3363 54.4729C20.3313 57.246 18.1419 59.7917 15.4547 60.1519C14.4985 60.2805 13.606 60.1152 12.8538 59.7239Z" fill="#FE7F3C"/>
<path d="M12.8636 59.7249L2.5625 54.3677C2.61143 54.393 2.66081 54.4175 2.71065 54.4411L13.0117 59.7984C12.9619 59.7747 12.9116 59.7503 12.8636 59.7249Z" fill="#FE7F3C"/>
<path d="M13.0203 59.8006L2.71924 54.4434C2.96387 54.5579 3.22085 54.6501 3.49017 54.7157L13.7912 60.0729C13.5224 60.0074 13.2649 59.9156 13.0203 59.801V59.8006Z" fill="#FE7F3C"/>
<path d="M13.7815 60.0687L3.48047 54.7114C4.00494 54.84 4.57148 54.8728 5.16134 54.7941C5.65518 54.7276 6.13347 54.5877 6.58295 54.3857L16.884 59.743C16.4345 59.9449 15.9562 60.0857 15.4624 60.1513C14.8712 60.2313 14.3046 60.1981 13.7815 60.0687Z" fill="#FE7F3C"/>
<path d="M16.8919 59.7486L6.59082 54.3914C6.86563 54.2685 7.13084 54.1212 7.38233 53.9551L17.6834 59.3123C17.431 59.4797 17.1671 59.6258 16.8919 59.749V59.7486Z" fill="#FE7F3C"/>
<path d="M17.6804 59.3113L7.37939 53.9541C7.5847 53.8177 7.78178 53.6686 7.96925 53.5073L18.2703 58.8646C18.0828 59.0263 17.8853 59.1754 17.6804 59.3113Z" fill="#FE7F3C"/>
<path d="M18.2742 58.8611L7.97314 53.5039C8.14782 53.3535 8.3138 53.1935 8.4711 53.0234L18.7721 58.3807C18.6149 58.5507 18.4493 58.7112 18.2742 58.8616V58.8611Z" fill="#FE7F3C"/>
<path d="M18.7659 58.3814L8.46484 53.0241C8.62077 52.8554 8.768 52.6766 8.90381 52.4912L19.2049 57.8484C19.0686 58.0342 18.9223 58.2126 18.7659 58.3814Z" fill="#FE7F3C"/>
<path d="M19.2029 57.8473L8.90186 52.4901C9.04635 52.2929 9.17849 52.0874 9.29967 51.8745L19.6007 57.2317C19.4809 57.4451 19.3483 57.6506 19.2029 57.8473Z" fill="#FE7F3C"/>
<path d="M19.6013 57.2348L9.30029 51.8776C9.44158 51.6262 9.5655 51.3631 9.6693 51.0938L19.9704 56.451C19.8661 56.7212 19.7426 56.983 19.6013 57.2344V57.2348Z" fill="#FE7F3C"/>
<path d="M19.9724 56.4494L9.67139 51.0921C9.91099 50.467 10.0445 49.7994 10.0454 49.1191L20.3465 54.4764C20.3456 55.1579 20.212 55.8251 19.9724 56.4494Z" fill="#FE7F3C"/>
<path d="M16.4272 18.9185L26.7283 24.2757C27.8339 24.8515 28.5683 26.0275 28.5656 27.4767L18.264 22.1195C18.2668 20.6702 17.5324 19.4929 16.4272 18.9185Z" fill="#FBF8E7"/>
<path d="M28.5651 27.4797L18.264 22.1224C18.2668 20.6732 17.5324 19.4958 16.4272 18.9214L26.7283 24.2786C27.8339 24.8539 28.5683 26.0304 28.5656 27.4797H28.5651Z" fill="#FBF8E7"/>
<path d="M20.3889 55.4255L10.0879 50.0682L10.1185 22.6543L20.4196 28.0115L20.3889 55.4255Z" fill="#FE7F3C"/>
<path d="M12.698 59.6623L2.39695 54.3051C0.954306 53.5545 -0.0041021 52.0186 1.3201e-05 50.127L10.3011 55.4842C10.297 57.3759 11.2554 58.9104 12.6975 59.6614V59.6623H12.698Z" fill="#FBF8E7"/>
<path d="M12.6985 59.654L2.39744 54.2968C0.954794 53.5457 -0.00361382 52.0099 0.000501482 50.1187L10.3016 55.4759C10.2974 57.3676 11.2558 58.9021 12.698 59.6531" fill="#FBF8E7"/>
<path d="M38.3025 5.39657L28.001 0.038472L28.2904 0L38.5919 5.35722L38.3025 5.39657Z" fill="#FBF8E7"/>
<path d="M16.5732 18.6542L26.8743 24.0115C26.2195 23.6705 25.4431 23.5271 24.6104 23.6386C22.2697 23.9529 20.3661 26.172 20.3611 28.5848L10.0601 23.2276C10.0651 20.8152 11.9686 18.5961 14.3093 18.2813C15.142 18.1699 15.9184 18.3132 16.5732 18.6542Z" fill="#FE7F3C"/>
<path d="M20.3899 28.5816L10.0889 23.2244C10.0898 22.6311 10.2055 22.0501 10.4149 21.5054L20.7159 26.8626C20.507 27.4069 20.3908 27.9879 20.3899 28.5812V28.5816Z" fill="#FE7F3C"/>
<path d="M20.7058 26.8579L10.4048 21.5007C10.4953 21.2651 10.6032 21.0368 10.7267 20.8174L21.0277 26.1746C20.9038 26.3941 20.7959 26.6223 20.7058 26.8584V26.8579Z" fill="#FE7F3C"/>
<path d="M21.0388 26.1792L10.7378 20.822C10.842 20.6362 10.9577 20.457 11.0844 20.2852L21.3854 25.6424C21.2597 25.8142 21.144 25.9934 21.0388 26.1792Z" fill="#FE7F3C"/>
<path d="M21.3821 25.6365L11.0811 20.2792C11.1999 20.117 11.3275 19.9623 11.4638 19.8149L21.7648 25.1722C21.6295 25.3195 21.5005 25.4743 21.3821 25.6369V25.6365Z" fill="#FE7F3C"/>
<path d="M21.7722 25.1784L11.4712 19.8212C11.6075 19.673 11.7529 19.5331 11.9051 19.4023L22.2062 24.7596C22.0539 24.8903 21.9085 25.0311 21.7722 25.1784Z" fill="#FE7F3C"/>
<path d="M22.2093 24.762L11.9082 19.4048C12.071 19.264 12.2429 19.1346 12.4217 19.0161L22.7228 24.3733C22.544 24.4918 22.372 24.6212 22.2093 24.762Z" fill="#FE7F3C"/>
<path d="M22.72 24.3679L12.4189 19.0107C12.638 18.866 12.8684 18.7384 13.108 18.6304L23.4091 23.9876C23.1695 24.0947 22.9399 24.2224 22.72 24.3679Z" fill="#FE7F3C"/>
<path d="M23.407 23.9903L13.106 18.633C13.4978 18.4577 13.913 18.3358 14.3419 18.2772C14.8563 18.2077 15.3493 18.237 15.8047 18.3484L26.1057 23.7057C25.6494 23.5929 25.1565 23.5649 24.643 23.6344C24.2132 23.6925 23.7975 23.8145 23.4066 23.9903H23.407Z" fill="#FE7F3C"/>
<path d="M26.1082 23.7078L15.8071 18.3506C16.0408 18.4079 16.2658 18.4879 16.4788 18.588L26.7799 23.9452C26.5668 23.8455 26.3428 23.7655 26.1082 23.7078Z" fill="#FE7F3C"/>
<path d="M26.7654 23.9476L16.4644 18.5903C16.5087 18.6109 16.5517 18.6327 16.5938 18.6542L26.8948 24.0114C26.8527 23.9887 26.8093 23.9681 26.7654 23.9476Z" fill="#FE7F3C"/>
<path d="M10.3943 9.14999L0.0932617 3.79189L0.380875 3.75342L10.6819 9.11064L10.3943 9.14999Z" fill="#FBF8E7"/>
<path d="M10.3011 55.5736L0 50.2155L0.0905366 3.78467L10.3916 9.14277L10.3011 45.671V55.5736Z" fill="#FBF8E7"/>
<path d="M38.5903 5.35986L38.4756 54.1265C38.4696 56.9634 36.2291 59.569 33.4801 59.938C30.731 60.307 28.4992 58.3025 28.5042 55.466L28.5582 27.4821C28.5618 25.2328 26.7918 23.6397 24.612 23.9335C22.4323 24.2264 20.6545 26.2955 20.6504 28.5444L20.6197 54.0984C20.6138 57.0336 18.2946 59.7324 15.4505 60.1153C12.6063 60.4974 10.2958 58.4199 10.3018 55.4847L10.3923 9.14935L10.679 9.11088L10.5885 55.4462C10.5834 58.2193 12.7641 60.1774 15.4505 59.8159C18.1368 59.4543 20.3262 56.9086 20.3321 54.1369L20.3628 28.5829C20.3678 26.1705 22.2713 23.9514 24.612 23.6366C26.9527 23.3223 28.8517 25.0308 28.8467 27.4431L28.7927 55.4271C28.7877 58.0988 30.8879 59.9904 33.4787 59.642C36.0695 59.294 38.1784 56.8362 38.1838 54.1659L38.2986 5.39965L38.5881 5.36117L38.5899 5.3603L38.5903 5.35986Z" fill="#FBF8E7"/>
<path d="M54.875 21.7154H61.3102L64.0682 34.9104L65.4201 43.9954H66.0691L67.6914 34.9104L70.8279 21.7154H77.4254L80.6159 34.9104L82.2383 43.9954H82.8872L84.2391 34.9104L87.1052 21.7154H93.1619L86.2941 49.9439H78.9395L75.6408 36.2082L74.397 27.8262H73.694L72.3961 36.2082L69.0974 49.9439H61.7429L54.875 21.7154Z" fill="#FBF8E7"/>
<path d="M95.9338 49.9439V21.7154H102.477V27.5017H103.234C103.559 25.627 104.226 24.203 105.235 23.2296C106.281 22.2202 107.633 21.7154 109.291 21.7154H110.697V28.421H108.534C106.479 28.421 104.947 28.7455 103.937 29.3944C102.964 30.0434 102.477 31.179 102.477 32.8013V49.9439H95.9338Z" fill="#FBF8E7"/>
<path d="M116.885 17.2811C115.515 17.2811 114.523 16.9927 113.91 16.4158C113.298 15.8029 112.991 14.9918 112.991 13.9823V12.9008C112.991 11.8913 113.298 11.0982 113.91 10.5214C114.523 9.90849 115.515 9.60205 116.885 9.60205C118.255 9.60205 119.246 9.90849 119.859 10.5214C120.472 11.0982 120.778 11.8913 120.778 12.9008V13.9823C120.778 14.9918 120.472 15.8029 119.859 16.4158C119.246 16.9927 118.255 17.2811 116.885 17.2811ZM113.64 21.7154H120.183V49.9439H113.64V21.7154Z" fill="#FBF8E7"/>
<path d="M133.43 49.9439C131.159 49.9439 129.518 49.4392 128.509 48.4298C127.499 47.4203 126.995 45.816 126.995 43.6168V26.961H123.263V21.7154H125.21C126.147 21.7154 126.778 21.4991 127.103 21.0665C127.463 20.6339 127.644 19.9489 127.644 19.0116V14.0364H133.538V21.7154H138.621V26.961H133.538V44.6984H138.189V49.9439H133.43Z" fill="#FBF8E7"/>
<path d="M145.326 17.2811C143.956 17.2811 142.965 16.9927 142.352 16.4158C141.739 15.8029 141.432 14.9918 141.432 13.9823V12.9008C141.432 11.8913 141.739 11.0982 142.352 10.5214C142.965 9.90849 143.956 9.60205 145.326 9.60205C146.696 9.60205 147.687 9.90849 148.3 10.5214C148.913 11.0982 149.22 11.8913 149.22 12.9008V13.9823C149.22 14.9918 148.913 15.8029 148.3 16.4158C147.687 16.9927 146.696 17.2811 145.326 17.2811ZM142.081 21.7154H148.625V49.9439H142.081V21.7154Z" fill="#FBF8E7"/>
<path d="M159.276 49.9439L150.948 21.7154H157.545L161.601 36.749L163.169 44.3739H163.926L165.494 36.749L169.55 21.7154H175.877L167.549 49.9439H159.276Z" fill="#FBF8E7"/>
<path d="M187.923 50.5929C184.174 50.5929 181.254 49.4032 179.163 47.0237C177.108 44.6443 176.08 40.913 176.08 35.8297C176.08 30.7464 177.108 27.015 179.163 24.6356C181.254 22.2562 184.174 21.0665 187.923 21.0665C191.673 21.0665 194.575 22.2562 196.63 24.6356C198.721 27.015 199.766 30.7464 199.766 35.8297C199.766 40.913 198.721 44.6443 196.63 47.0237C194.575 49.4032 191.673 50.5929 187.923 50.5929ZM187.923 45.2933C191.24 45.2933 192.898 43.3465 192.898 39.4529V32.2065C192.898 28.3129 191.24 26.3661 187.923 26.3661C184.606 26.3661 182.948 28.3129 182.948 32.2065V39.4529C182.948 43.3465 184.606 45.2933 187.923 45.2933Z" fill="#FBF8E7"/>
</svg>
