<svg width="118" height="39" viewBox="0 0 118 39" fill="none" xmlns="http://www.w3.org/2000/svg">
<path d="M18.929 37.8556L12.6338 34.4313C13.0767 34.6719 13.6015 34.7739 14.1643 34.6946C15.7476 34.4721 17.0363 32.9011 17.0397 31.1943L23.3349 34.6186C23.3318 36.3262 22.043 37.8969 20.4594 38.1191C19.8967 38.1982 19.3716 38.0962 18.929 37.8556Z" fill="#FE7F3C"/>
<path d="M18.9309 37.8617L12.6357 34.4375C12.6645 34.4531 12.6939 34.4682 12.7232 34.483L19.0184 37.9073C18.989 37.8927 18.9597 37.8779 18.9309 37.8617Z" fill="#FE7F3C"/>
<path d="M19.0188 37.9067L12.7236 34.4824C12.8675 34.5534 13.0187 34.6096 13.1772 34.6498L19.4723 38.074C19.3139 38.0332 19.1622 37.9768 19.0188 37.9067Z" fill="#FE7F3C"/>
<path d="M19.4729 38.0753L13.1777 34.6511C13.486 34.7302 13.8196 34.7509 14.1669 34.7014C14.4581 34.6606 14.7387 34.5743 15.0033 34.4502L21.2985 37.8744C21.0338 37.9985 20.7524 38.0851 20.4621 38.1259C20.1142 38.1745 19.7808 38.1547 19.4726 38.0753H19.4729Z" fill="#FE7F3C"/>
<path d="M21.2981 37.8718L15.0029 34.4475C15.165 34.3712 15.3204 34.2813 15.469 34.1787L21.7645 37.6029C21.6164 37.7055 21.4602 37.7955 21.2984 37.8718H21.2981Z" fill="#FE7F3C"/>
<path d="M21.7649 37.6042L15.4697 34.18C15.591 34.0967 15.7067 34.0042 15.8171 33.9053L22.1122 37.3295C22.0019 37.429 21.8862 37.5209 21.7649 37.6045V37.6042Z" fill="#FE7F3C"/>
<path d="M22.1119 37.3301L15.8164 33.9059C15.9198 33.8134 16.0173 33.7139 16.1098 33.6094L22.4053 37.0336C22.3128 37.1387 22.215 37.2376 22.1119 37.3301Z" fill="#FE7F3C"/>
<path d="M22.4075 37.0334L16.1123 33.6092C16.204 33.5049 16.2911 33.3948 16.3716 33.2803L22.6668 36.7045C22.5863 36.8191 22.5 36.9289 22.4075 37.0331V37.0334Z" fill="#FE7F3C"/>
<path d="M22.6663 36.7054L16.3711 33.2811C16.4563 33.1593 16.5348 33.0327 16.605 32.9014L22.9004 36.3256C22.8295 36.4569 22.7515 36.5844 22.6663 36.7054Z" fill="#FE7F3C"/>
<path d="M22.8997 36.3249L16.6045 32.9007C16.688 32.7453 16.761 32.5838 16.8222 32.417L23.1176 35.8412C23.0564 36.008 22.9832 36.1693 22.8997 36.3249Z" fill="#FE7F3C"/>
<path d="M23.1182 35.8401L16.8228 32.4159C16.9644 32.0308 17.043 31.6192 17.0435 31.1992L23.3387 34.6234C23.3381 35.0434 23.2596 35.4551 23.1179 35.8401H23.1182Z" fill="#FE7F3C"/>
<path d="M18.8325 38.0309L12.5374 34.6067C11.6859 34.1434 11.1206 33.1961 11.1226 32.0283L17.4177 35.4525C17.4155 36.62 17.9805 37.5676 18.8325 38.0309Z" fill="black"/>
<path d="M18.8345 38.0309L12.5393 34.6067C11.6879 34.1434 11.1226 33.1961 11.1245 32.0283L17.4197 35.4525C17.4175 36.62 17.9825 37.5676 18.8345 38.0309Z" fill="black"/>
<path d="M23.3372 34.6206L17.042 31.1958L17.1121 0.0253906L23.4073 3.45018L23.3372 34.6206Z" fill="#FE7F3C"/>
<path d="M17.4207 35.4507L11.1255 32.0265L11.159 14.1396L17.4542 17.5639L17.4207 35.4507Z" fill="black"/>
<path d="M7.85425 38.1731L1.55908 34.7489C2.01876 34.9993 2.56422 35.1046 3.14852 35.0225C4.79022 34.7914 6.12817 33.1642 6.1318 31.3926L12.427 34.8168C12.4239 36.5893 11.0859 38.2164 9.44369 38.4467C8.85939 38.5289 8.31393 38.4232 7.85425 38.1731Z" fill="#FE7F3C"/>
<path d="M7.85474 38.1772L1.55957 34.7529C1.58947 34.7691 1.61965 34.7848 1.65011 34.7999L7.94528 38.2241C7.91482 38.209 7.88408 38.1934 7.85474 38.1772Z" fill="#FE7F3C"/>
<path d="M7.94507 38.225L1.6499 34.8008C1.7994 34.874 1.95645 34.933 2.12103 34.9749L8.4162 38.3991C8.25189 38.3572 8.09457 38.2985 7.94507 38.2253V38.225Z" fill="#FE7F3C"/>
<path d="M8.41724 38.398L2.12207 34.9738C2.44259 35.056 2.78881 35.0769 3.14928 35.0266C3.45108 34.9841 3.74337 34.8947 4.01805 34.7656L10.3132 38.1899C10.0385 38.319 9.74625 38.4089 9.44445 38.4508C9.08314 38.502 8.73692 38.4807 8.41724 38.398Z" fill="#FE7F3C"/>
<path d="M10.3123 38.1894L4.01709 34.7652C4.18503 34.6867 4.34711 34.5925 4.5008 34.4863L10.796 37.9106C10.6417 38.0176 10.4805 38.1109 10.3123 38.1897V38.1894Z" fill="#FE7F3C"/>
<path d="M10.7966 37.91L4.50146 34.4858C4.62693 34.3986 4.74737 34.3033 4.86194 34.2002L11.1571 37.6244C11.0425 37.7278 10.9218 37.8231 10.7966 37.91Z" fill="#FE7F3C"/>
<path d="M11.1555 37.6229L4.86035 34.1987C4.9671 34.1026 5.06853 34.0003 5.16466 33.8916L11.4598 37.3158C11.3637 37.4245 11.2625 37.5271 11.1555 37.6232V37.6229Z" fill="#FE7F3C"/>
<path d="M11.4622 37.3176L5.16699 33.8934C5.26228 33.7855 5.35226 33.6712 5.43525 33.5527L11.7304 36.977C11.6472 37.0957 11.5577 37.2097 11.4622 37.3176Z" fill="#FE7F3C"/>
<path d="M11.7278 36.9759L5.43262 33.5517C5.52092 33.4256 5.60168 33.2943 5.67573 33.1582L11.9709 36.5824C11.8977 36.7188 11.8166 36.8501 11.7278 36.9759Z" fill="#FE7F3C"/>
<path d="M11.9739 36.5844L5.67871 33.1602C5.76506 32.9995 5.84078 32.8313 5.90422 32.6592L12.1994 36.0834C12.1357 36.2561 12.0602 36.4235 11.9739 36.5842V36.5844Z" fill="#FE7F3C"/>
<path d="M12.2 36.0818L5.90479 32.6576C6.05121 32.258 6.13281 31.8313 6.13337 31.3965L12.4285 34.8207C12.428 35.2564 12.3464 35.6828 12.2 36.0818Z" fill="#FE7F3C"/>
<path d="M10.0356 12.0938L16.3308 15.518C17.0065 15.886 17.4553 16.6377 17.4536 17.564L11.1581 14.1398C11.1598 13.2135 10.711 12.4609 10.0356 12.0938Z" fill="black"/>
<path d="M17.4543 17.563L11.1591 14.1388C11.1608 13.2125 10.712 12.46 10.0366 12.0928L16.3318 15.517C17.0075 15.8847 17.4562 16.6367 17.4546 17.563H17.4543Z" fill="black"/>
<path d="M12.4578 35.4281L6.1626 32.0039L6.18132 14.4814L12.4765 17.9057L12.4578 35.4281Z" fill="#FE7F3C"/>
<path d="M7.75999 38.1329L1.46482 34.7087C0.583194 34.2289 -0.00250687 33.2472 8.06739e-06 32.0381L6.29518 35.4623C6.29266 36.6714 6.87837 37.6523 7.75971 38.1323V38.1329H7.75999Z" fill="black"/>
<path d="M7.75999 38.1309L1.46482 34.7067C0.583194 34.2266 -0.00250687 33.245 8.06739e-06 32.0361L6.29518 35.4604C6.29266 36.6695 6.87837 37.6503 7.75971 38.1304" fill="black"/>
<path d="M23.4078 3.44938L17.1123 0.0245905L17.2892 0L23.5846 3.42423L23.4078 3.44938Z" fill="black"/>
<path d="M10.1302 11.9223L16.4254 15.3465C16.0252 15.1286 15.5507 15.0369 15.0419 15.1082C13.6114 15.3091 12.4481 16.7275 12.4451 18.2697L6.1499 14.8455C6.15298 13.3036 7.31627 11.8851 8.74672 11.6839C9.25557 11.6127 9.73006 11.7043 10.1302 11.9223Z" fill="#FE7F3C"/>
<path d="M12.448 18.2681L6.15283 14.8439C6.15339 14.4647 6.22409 14.0933 6.35207 13.7451L12.6472 17.1693C12.5195 17.5172 12.4486 17.8886 12.448 18.2678V18.2681Z" fill="#FE7F3C"/>
<path d="M12.6462 17.1696L6.35107 13.7454C6.4064 13.5947 6.47235 13.4489 6.5478 13.3086L12.843 16.7328C12.7672 16.8731 12.7013 17.019 12.6462 17.1699V17.1696Z" fill="#FE7F3C"/>
<path d="M12.8445 16.7342L6.54932 13.3099C6.61303 13.1912 6.68373 13.0766 6.76113 12.9668L13.0563 16.391C12.9795 16.5008 12.9088 16.6154 12.8445 16.7342Z" fill="#FE7F3C"/>
<path d="M13.0554 16.389L6.76025 12.9647C6.83291 12.8611 6.91087 12.7621 6.99414 12.668L13.2893 16.0922C13.2066 16.1864 13.1278 16.2853 13.0554 16.3892V16.389Z" fill="#FE7F3C"/>
<path d="M13.2888 16.0943L6.99365 12.67C7.07692 12.5753 7.16579 12.4859 7.25884 12.4023L13.554 15.8266C13.461 15.9101 13.3721 16.0001 13.2888 16.0943Z" fill="#FE7F3C"/>
<path d="M13.5549 15.826L7.25977 12.4017C7.35925 12.3118 7.46431 12.229 7.57357 12.1533L13.8687 15.5775C13.7595 15.6533 13.6544 15.736 13.5549 15.826Z" fill="#FE7F3C"/>
<path d="M13.8689 15.5775L7.57373 12.1533C7.70758 12.0608 7.84842 11.9792 7.99484 11.9102L14.29 15.3344C14.1436 15.4028 14.0033 15.4844 13.8689 15.5775Z" fill="#FE7F3C"/>
<path d="M14.2903 15.3348L7.99512 11.9106C8.2346 11.7985 8.48832 11.7206 8.75044 11.6831C9.0648 11.6387 9.36604 11.6574 9.64436 11.7287L15.9395 15.1529C15.6606 15.0808 15.3594 15.0629 15.0456 15.1073C14.7829 15.1445 14.5289 15.2225 14.29 15.3348H14.2903Z" fill="#FE7F3C"/>
<path d="M15.9397 15.1537L9.64453 11.7295C9.78732 11.7661 9.92481 11.8172 10.055 11.8812L16.3502 15.3055C16.22 15.2417 16.0831 15.1906 15.9397 15.1537Z" fill="#FE7F3C"/>
<path d="M16.3489 15.3041L10.0537 11.8799C10.0808 11.893 10.1071 11.907 10.1328 11.9207L16.428 15.3449C16.4023 15.3304 16.3757 15.3172 16.3489 15.3041Z" fill="#FE7F3C"/>
<path d="M6.35035 5.84684L0.0551758 2.42205L0.230942 2.39746L6.52611 5.82169L6.35035 5.84684Z" fill="black"/>
<path d="M6.29517 35.5223L0 32.0976L0.0553286 2.41992L6.3505 5.84471L6.29517 29.1928V35.5223Z" fill="black"/>
<path d="M23.5831 3.42383L23.513 34.5945C23.5093 36.4078 22.1401 38.0732 20.4601 38.3091C18.7801 38.5449 17.4162 37.2637 17.4193 35.4507L17.4522 17.5639C17.4545 16.1262 16.3728 15.1079 15.0407 15.2957C13.7086 15.4829 12.6222 16.8055 12.6197 18.2429L12.6009 34.5765C12.5973 36.4526 11.18 38.1776 9.44189 38.4224C7.70378 38.6666 6.29178 37.3387 6.29542 35.4626L6.35075 5.84599L6.52595 5.8214L6.47062 35.438C6.46755 37.2105 7.80019 38.4621 9.44189 38.231C11.0836 37.9999 12.4215 36.3727 12.4252 34.6011L12.4439 18.2675C12.447 16.7256 13.6103 15.3071 15.0407 15.1059C16.4711 14.905 17.6316 15.9971 17.6286 17.539L17.5956 35.4258C17.5925 37.1335 18.876 38.3426 20.4593 38.1199C22.0426 37.8974 23.3313 36.3264 23.3347 34.6196L23.4048 3.44926L23.5817 3.42467L23.5828 3.42411L23.5831 3.42383Z" fill="black"/>
<path d="M29.4551 13.9935H33.3878L35.0732 22.0572L35.8994 27.6093H36.296L37.2874 22.0572L39.2042 13.9935H43.236L45.1859 22.0572L46.1773 27.6093H46.5739L47.4001 22.0572L49.1516 13.9935H52.8529L48.6559 31.2445H44.1614L42.1454 22.8504L41.3853 17.7279H40.9557L40.1626 22.8504L38.1467 31.2445H33.6522L29.4551 13.9935Z" fill="#211317"/>
<path d="M54.5469 31.2445V13.9935H58.5457V17.5297H59.0084C59.2067 16.384 59.6142 15.5137 60.2311 14.9189C60.8701 14.302 61.6963 13.9935 62.7097 13.9935H63.569V18.0915H62.2471C60.9912 18.0915 60.0549 18.2898 59.438 18.6863C58.8431 19.0829 58.5457 19.7769 58.5457 20.7683V31.2445H54.5469Z" fill="#211317"/>
<path d="M67.3504 11.2836C66.5132 11.2836 65.9073 11.1074 65.5327 10.7548C65.1582 10.3803 64.9709 9.88459 64.9709 9.2677V8.60674C64.9709 7.98985 65.1582 7.50514 65.5327 7.15263C65.9073 6.77809 66.5132 6.59082 67.3504 6.59082C68.1876 6.59082 68.7935 6.77809 69.168 7.15263C69.5425 7.50514 69.7298 7.98985 69.7298 8.60674V9.2677C69.7298 9.88459 69.5425 10.3803 69.168 10.7548C68.7935 11.1074 68.1876 11.2836 67.3504 11.2836ZM65.3675 13.9935H69.3663V31.2445H65.3675V13.9935Z" fill="#211317"/>
<path d="M77.4615 31.2445C76.0734 31.2445 75.071 30.9361 74.4541 30.3192C73.8372 29.7023 73.5288 28.7219 73.5288 27.3779V17.1992H71.2485V13.9935H72.4382C73.011 13.9935 73.3966 13.8613 73.5949 13.597C73.8152 13.3326 73.9253 12.914 73.9253 12.3411V9.30074H77.5275V13.9935H80.634V17.1992H77.5275V28.0389H80.3697V31.2445H77.4615Z" fill="#211317"/>
<path d="M84.7315 11.2836C83.8942 11.2836 83.2884 11.1074 82.9138 10.7548C82.5393 10.3803 82.352 9.88459 82.352 9.2677V8.60674C82.352 7.98985 82.5393 7.50514 82.9138 7.15263C83.2884 6.77809 83.8942 6.59082 84.7315 6.59082C85.5687 6.59082 86.1745 6.77809 86.5491 7.15263C86.9236 7.50514 87.1109 7.98985 87.1109 8.60674V9.2677C87.1109 9.88459 86.9236 10.3803 86.5491 10.7548C86.1745 11.1074 85.5687 11.2836 84.7315 11.2836ZM82.7486 13.9935H86.7474V31.2445H82.7486V13.9935Z" fill="#211317"/>
<path d="M93.2563 31.2445L88.1669 13.9935H92.1987L94.6773 23.1808L95.6357 27.8406H96.0984L97.0568 23.1808L99.5353 13.9935H103.402L98.3126 31.2445H93.2563Z" fill="#211317"/>
<path d="M110.763 31.6411C108.472 31.6411 106.687 30.914 105.41 29.4599C104.154 28.0058 103.526 25.7255 103.526 22.619C103.526 19.5125 104.154 17.2322 105.41 15.7781C106.687 14.324 108.472 13.597 110.763 13.597C113.055 13.597 114.828 14.324 116.084 15.7781C117.362 17.2322 118.001 19.5125 118.001 22.619C118.001 25.7255 117.362 28.0058 116.084 29.4599C114.828 30.914 113.055 31.6411 110.763 31.6411ZM110.763 28.4024C112.79 28.4024 113.804 27.2127 113.804 24.8332V20.4048C113.804 18.0254 112.79 16.8357 110.763 16.8357C108.736 16.8357 107.723 18.0254 107.723 20.4048V24.8332C107.723 27.2127 108.736 28.4024 110.763 28.4024Z" fill="#211317"/>
</svg>
