<svg width="241" height="60" viewBox="0 0 241 60" fill="none" xmlns="http://www.w3.org/2000/svg">
<g clip-path="url(#clip0_1410_20415)">
<path d="M29.4211 59.0389L19.6362 53.7161C20.3248 54.0903 21.1401 54.249 22.0152 54.1254C24.4766 53.78 26.4794 51.3372 26.4845 48.6851L36.2694 54.0078C36.2643 56.662 34.2615 59.1039 31.8001 59.4492C30.925 59.5718 30.1097 59.4141 29.4211 59.04V59.0389Z" fill="#FE7F3C"/>
<path d="M29.4216 59.0391L19.6367 53.7163C19.681 53.741 19.7274 53.7637 19.7728 53.7874L29.5577 59.1102C29.5123 59.0875 29.467 59.0649 29.4216 59.0391Z" fill="#FE7F3C"/>
<path d="M29.5579 59.1089L19.7729 53.7861C19.9966 53.8964 20.2316 53.984 20.478 54.0459L30.2629 59.3687C30.0165 59.3048 29.7805 59.2172 29.5579 59.1089Z" fill="#FE7F3C"/>
<path d="M30.2624 59.3714L20.4775 54.0486C20.9568 54.1713 21.4753 54.2033 22.0154 54.127C22.4679 54.0641 22.9039 53.9291 23.3152 53.7363L33.1001 59.0591C32.6888 59.2519 32.2508 59.3869 31.8003 59.4498C31.2592 59.525 30.7407 59.4941 30.2624 59.3714Z" fill="#FE7F3C"/>
<path d="M33.1003 59.0581L23.3154 53.7353C23.5669 53.6168 23.8092 53.4766 24.04 53.3179L33.826 58.6407C33.5961 58.8004 33.3529 58.9396 33.1014 59.0581H33.1003Z" fill="#FE7F3C"/>
<path d="M33.8269 58.6401L24.042 53.3174C24.2306 53.1875 24.41 53.0442 24.5821 52.8906L34.367 58.2134C34.1959 58.368 34.0155 58.5113 33.8269 58.6412V58.6401Z" fill="#FE7F3C"/>
<path d="M34.366 58.2118L24.5801 52.889C24.7409 52.7457 24.8924 52.5911 25.0357 52.4282L34.8216 57.751C34.6783 57.9139 34.5258 58.0685 34.366 58.2118Z" fill="#FE7F3C"/>
<path d="M34.823 57.7501L25.0381 52.4273C25.1803 52.2654 25.3164 52.0943 25.4411 51.916L35.226 57.2388C35.1013 57.4171 34.9663 57.5872 34.823 57.749V57.7501Z" fill="#FE7F3C"/>
<path d="M35.2248 57.241L25.4399 51.9183C25.5719 51.7286 25.6945 51.5317 25.8038 51.3276L35.5897 56.6504C35.4794 56.8545 35.3578 57.0524 35.2259 57.241H35.2248Z" fill="#FE7F3C"/>
<path d="M35.5891 56.6504L25.8042 51.3276C25.9341 51.0864 26.0475 50.8349 26.1423 50.5752L35.9282 55.898C35.8334 56.1577 35.719 56.4082 35.5891 56.6504Z" fill="#FE7F3C"/>
<path d="M35.9275 55.8983L26.1416 50.5755C26.3622 49.9766 26.4838 49.3376 26.4848 48.6841L36.2697 54.0069C36.2697 54.6593 36.1471 55.2994 35.9265 55.8983H35.9275Z" fill="#FE7F3C"/>
<path d="M29.2731 59.3074L19.4882 53.9846C18.1647 53.2641 17.2865 51.7922 17.2886 49.9771L27.0735 55.2998C27.0704 57.114 27.9486 58.5869 29.2721 59.3074H29.2731Z" fill="#FBF8E7"/>
<path d="M29.2741 59.3074L19.4892 53.9846C18.1657 53.2641 17.2875 51.7922 17.2896 49.9771L27.0745 55.2998C27.0714 57.114 27.9496 58.5869 29.273 59.3074H29.2741Z" fill="#FBF8E7"/>
<path d="M36.2707 54.0071L26.4858 48.6833L26.5951 0.23291L36.38 5.55673L36.2707 54.0081V54.0071Z" fill="#FE7F3C"/>
<path d="M27.0754 55.2981L17.2905 49.9753L17.3431 22.1719L27.128 27.4947L27.0754 55.2981Z" fill="#FBF8E7"/>
<path d="M12.2058 59.5316L2.4209 54.2088C3.13521 54.5984 3.98351 54.7613 4.8916 54.6345C7.44374 54.2748 9.52276 51.7463 9.52895 48.9922L19.3138 54.315C19.3087 57.0702 17.2297 59.5996 14.6765 59.9573C13.7684 60.0851 12.9201 59.9212 12.2058 59.5326V59.5316Z" fill="#FE7F3C"/>
<path d="M12.2058 59.5323L2.4209 54.2095C2.46728 54.2352 2.5147 54.259 2.56211 54.2827L12.347 59.6054C12.2996 59.5817 12.2522 59.558 12.2058 59.5323Z" fill="#FE7F3C"/>
<path d="M12.3464 59.604L2.56152 54.2812C2.79344 54.3946 3.03773 54.4864 3.29336 54.5513L13.0783 59.8741C12.8226 59.8092 12.5783 59.7174 12.3464 59.604Z" fill="#FE7F3C"/>
<path d="M13.0784 59.8759L3.29346 54.5531C3.79131 54.681 4.32936 54.7129 4.89009 54.6356C5.35908 54.5696 5.81364 54.4305 6.24037 54.2295L16.0253 59.5523C15.5985 59.7533 15.144 59.8924 14.675 59.9574C14.1132 60.0367 13.5752 60.0038 13.0784 59.8749V59.8759Z" fill="#FE7F3C"/>
<path d="M16.0266 59.5511L6.2417 54.2283C6.50248 54.1067 6.75501 53.9603 6.99312 53.7954L16.778 59.1182C16.5379 59.2841 16.2874 59.4295 16.0266 59.5521V59.5511Z" fill="#FE7F3C"/>
<path d="M16.7795 59.1186L6.99463 53.7958C7.18944 53.6608 7.37704 53.5124 7.55536 53.3516L17.3403 58.6743C17.1619 58.8351 16.9743 58.9836 16.7795 59.1186Z" fill="#FE7F3C"/>
<path d="M17.3391 58.6745L7.5542 53.3518C7.72015 53.2023 7.87785 53.0436 8.02731 52.8745L17.8122 58.1973C17.6628 58.3663 17.5051 58.5261 17.3391 58.6756V58.6745Z" fill="#FE7F3C"/>
<path d="M17.8137 58.1968L8.02881 52.874C8.17724 52.706 8.31639 52.5287 8.44626 52.3442L18.2312 57.667C18.1013 57.8515 17.9632 58.0288 17.8137 58.1968Z" fill="#FE7F3C"/>
<path d="M18.2292 57.6664L8.44434 52.3437C8.58143 52.1478 8.70718 51.9437 8.82262 51.7324L18.6075 57.0552C18.4941 57.2675 18.3674 57.4716 18.2292 57.6664Z" fill="#FE7F3C"/>
<path d="M18.6072 57.0547L8.82227 51.7319C8.95626 51.4824 9.07377 51.2206 9.17272 50.9526L18.9576 56.2754C18.8587 56.5434 18.7412 56.8042 18.6072 57.0536V57.0547Z" fill="#FE7F3C"/>
<path d="M18.9587 56.2755L9.17383 50.9527C9.40162 50.3322 9.52841 49.6684 9.52944 48.9922L19.3143 54.315C19.3143 54.9922 19.1865 55.655 18.9587 56.2755Z" fill="#FE7F3C"/>
<path d="M15.5982 18.9941L25.3831 24.3169C26.4334 24.889 27.1313 26.0579 27.1282 27.4968L17.3422 22.174C17.3453 20.734 16.6475 19.5641 15.5972 18.9941H15.5982Z" fill="#FBF8E7"/>
<path d="M27.1271 27.4958L17.3422 22.173C17.3453 20.7331 16.6475 19.5632 15.5972 18.9932L25.3821 24.316C26.4324 24.888 27.1302 26.0569 27.1271 27.4958Z" fill="#FBF8E7"/>
<path d="M19.3621 55.2654L9.57715 49.9426L9.60601 22.7061L19.3909 28.0288L19.3621 55.2654Z" fill="#FE7F3C"/>
<path d="M12.0618 59.4668L2.27694 54.144C0.906043 53.3988 -0.00410905 51.8733 1.395e-05 49.9932L9.78492 55.316C9.7808 57.195 10.6909 58.7195 12.0618 59.4657V59.4668Z" fill="#FBF8E7"/>
<path d="M12.0618 59.4668L2.27694 54.144C0.906043 53.3977 -0.00410905 51.8722 1.395e-05 49.9932L9.78492 55.316C9.7808 57.195 10.6909 58.7195 12.0618 59.4657" fill="#FBF8E7"/>
<path d="M36.3816 5.55678L26.5957 0.232962L26.8709 0.194824L36.6569 5.51761L36.3816 5.55678Z" fill="#FBF8E7"/>
<path d="M15.7456 18.7242L25.5305 24.047C24.909 23.7078 24.171 23.5656 23.3804 23.6769C21.1571 23.9892 19.3491 26.194 19.344 28.5915L9.55908 23.2687C9.56424 20.8722 11.3722 18.6675 13.5955 18.3541C14.3861 18.2438 15.1241 18.3861 15.7456 18.7242Z" fill="#FE7F3C"/>
<path d="M19.343 28.5908L9.55811 23.268C9.55811 22.6784 9.6684 22.1012 9.86733 21.5601L19.6522 26.8829C19.4533 27.424 19.343 28.0012 19.343 28.5908Z" fill="#FE7F3C"/>
<path d="M19.6526 26.8834L9.86768 21.5606C9.95323 21.3266 10.0563 21.0999 10.1738 20.8813L19.9587 26.2041C19.8412 26.4227 19.7381 26.6494 19.6526 26.8834Z" fill="#FE7F3C"/>
<path d="M19.9587 26.2038L10.1738 20.881C10.2728 20.6965 10.3831 20.5182 10.5026 20.3481L20.2875 25.6709C20.168 25.842 20.0577 26.0193 19.9587 26.2038Z" fill="#FE7F3C"/>
<path d="M20.2873 25.6713L10.5024 20.3485C10.6158 20.1877 10.7364 20.0331 10.8663 19.8867L20.6512 25.2095C20.5224 25.3559 20.4007 25.5095 20.2873 25.6713Z" fill="#FE7F3C"/>
<path d="M20.6506 25.2104L10.8657 19.8876C10.9956 19.7402 11.1337 19.6011 11.278 19.4712L21.0629 24.794C20.9186 24.9239 20.7805 25.064 20.6506 25.2104Z" fill="#FE7F3C"/>
<path d="M21.0627 24.7933L11.2778 19.4705C11.4324 19.3303 11.5953 19.2025 11.7654 19.084L21.5503 24.4068C21.3802 24.5243 21.2173 24.6531 21.0627 24.7933Z" fill="#FE7F3C"/>
<path d="M21.551 24.4081L11.7661 19.0853C11.9743 18.942 12.1928 18.8142 12.4206 18.707L22.2055 24.0298C21.9777 24.136 21.7603 24.2628 21.551 24.4081Z" fill="#FE7F3C"/>
<path d="M22.2058 24.0305L12.4209 18.7077C12.793 18.5335 13.1878 18.4119 13.5949 18.3541C14.0835 18.2851 14.5515 18.3139 14.9844 18.4253L24.7693 23.748C24.3364 23.6357 23.8674 23.6079 23.3798 23.6769C22.9716 23.7346 22.5769 23.8563 22.2058 24.0305Z" fill="#FE7F3C"/>
<path d="M24.7688 23.7481L14.9839 18.4253C15.2055 18.482 15.4199 18.5614 15.6219 18.6613L25.4068 23.9841C25.2048 23.8852 24.9914 23.8058 24.7688 23.7481Z" fill="#FE7F3C"/>
<path d="M25.4055 23.9829L15.6206 18.6602C15.6629 18.6808 15.7031 18.7024 15.7433 18.7241L25.5282 24.0469C25.488 24.0242 25.4467 24.0036 25.4055 23.984V23.9829Z" fill="#FE7F3C"/>
<path d="M9.87182 9.28183L0.0869141 3.95904L0.360063 3.9209L10.145 9.24369L9.87182 9.28286V9.28183Z" fill="#FBF8E7"/>
<path d="M9.7849 55.413L0 50.0891L0.0855522 3.95898L9.87046 9.2828L9.7849 45.5745V55.413Z" fill="#FBF8E7"/>
<path d="M36.6554 5.51758L36.5461 53.969C36.541 56.7881 34.4125 59.3763 31.8006 59.7432C29.1897 60.1102 27.0694 58.1178 27.0735 55.2997L27.1251 27.4962C27.1282 25.2616 25.447 23.6784 23.3762 23.9711C21.3055 24.2618 19.6171 26.3181 19.613 28.5517L19.5841 53.9401C19.579 56.8561 17.3752 59.5381 14.6736 59.9185C11.972 60.2978 9.77757 58.2342 9.78272 55.3182L9.86828 9.28291L10.1404 9.24477L10.0548 55.2801C10.0497 58.0353 12.1215 59.9803 14.6736 59.6216C17.2258 59.2629 19.3048 56.7335 19.311 53.9793L19.3398 28.5909C19.345 26.1944 21.1529 23.9896 23.3762 23.6763C25.5996 23.364 27.4034 25.0616 27.3993 27.4581L27.3477 55.2615C27.3426 57.9157 29.3381 59.7948 31.7985 59.4495C34.2599 59.1042 36.2627 56.6623 36.2678 54.0092L36.3771 5.55778L36.6523 5.51964H36.6544V5.51861L36.6554 5.51758Z" fill="#FBF8E7"/>
<path d="M44.2686 22.3149H50.4437L53.1047 33.1093L55.1631 42.0964H55.3642L57.774 33.1093L60.8365 22.3149H66.6602L69.8229 33.1093L72.2828 42.0964H72.4839L74.5423 33.1093L77.1532 22.3149H83.128L75.9487 48.5228H69.0199L65.6561 36.9756L63.6979 29.8464H63.5476L61.6395 36.9756L58.3257 48.5228H51.4979L44.2686 22.3149Z" fill="#FBF8E7"/>
<path d="M85.4871 48.5228V22.3149H91.9135V27.7371H92.1647C92.3314 27.0343 92.5912 26.3566 92.9426 25.7038C93.2941 25.0511 93.7535 24.4735 94.3232 23.9718C94.8922 23.4701 95.57 23.0679 96.3566 22.7665C97.1423 22.4652 98.0549 22.3149 99.0927 22.3149H100.498V28.3899H98.4901C96.3143 28.3899 94.6747 28.7084 93.5695 29.3439C92.4652 29.9802 91.9127 31.018 91.9127 32.4565V48.5228H85.4863H85.4871Z" fill="#FBF8E7"/>
<path d="M105.971 18.5006C104.632 18.5006 103.669 18.1993 103.084 17.5966C102.498 16.994 102.205 16.2247 102.205 15.287V14.2829C102.205 13.3461 102.498 12.5759 103.084 11.9733C103.669 11.3707 104.632 11.0693 105.971 11.0693C107.31 11.0693 108.231 11.3707 108.833 11.9733C109.436 12.5759 109.737 13.3461 109.737 14.2829V15.287C109.737 16.2247 109.436 16.994 108.833 17.5966C108.231 18.1993 107.277 18.5006 105.971 18.5006ZM102.758 22.316H109.184V48.5239H102.758V22.316Z" fill="#FBF8E7"/>
<path d="M122.337 48.5238C120.127 48.5238 118.445 47.9478 117.291 46.7965C116.136 45.6452 115.559 44.0001 115.559 41.8619V27.487H111.693V22.316H113.702C114.672 22.316 115.333 22.0898 115.685 21.6382C116.036 21.1866 116.212 20.5088 116.212 19.6049V15.1367H121.986V22.316H127.358V27.487H121.986V43.3521H126.957V48.523H122.337L122.337 48.5238Z" fill="#FBF8E7"/>
<path d="M133.683 18.5006C132.344 18.5006 131.381 18.1993 130.796 17.5966C130.21 16.994 129.917 16.2247 129.917 15.287V14.2829C129.917 13.3461 130.21 12.5759 130.796 11.9733C131.381 11.3707 132.344 11.0693 133.683 11.0693C135.022 11.0693 135.943 11.3707 136.545 11.9733C137.148 12.5759 137.449 13.3461 137.449 14.2829V15.287C137.449 16.2247 137.148 16.994 136.545 17.5966C135.943 18.1993 134.989 18.5006 133.683 18.5006ZM130.47 22.316H136.896V48.5239H130.47V22.316Z" fill="#FBF8E7"/>
<path d="M141.866 48.5234V22.3155H148.292V26.6835H148.543C149.079 25.2779 149.924 24.0976 151.079 23.1436C152.233 22.1895 153.832 21.7129 155.874 21.7129C158.585 21.7129 160.66 22.6004 162.099 24.3739C163.537 26.1482 164.257 28.6754 164.257 31.9547V48.5226H157.831V32.6074C157.831 30.7329 157.496 29.3273 156.827 28.3897C156.157 27.4529 155.053 26.984 153.513 26.984C152.843 26.984 152.199 27.0764 151.58 27.2603C150.96 27.445 150.408 27.7119 149.923 28.0633C149.438 28.4147 149.044 28.8499 148.744 29.3688C148.442 29.8885 148.292 30.4981 148.292 31.201V48.5218H141.866V48.5234Z" fill="#FBF8E7"/>
<path d="M179.32 49.126C177.445 49.126 175.763 48.8075 174.274 48.172C172.785 47.5365 171.513 46.6153 170.459 45.4108C169.404 44.2055 168.593 42.7584 168.024 41.0678C167.454 39.3781 167.17 37.4778 167.17 35.3694C167.17 33.2609 167.454 31.37 168.024 29.6959C168.593 28.0226 169.404 26.5919 170.459 25.4031C171.513 24.215 172.785 23.3032 174.274 22.6669C175.763 22.0314 177.445 21.7129 179.32 21.7129C181.195 21.7129 182.884 22.0314 184.391 22.6669C185.897 23.3032 187.177 24.2158 188.231 25.4031C189.285 26.5919 190.096 28.0226 190.666 29.6959C191.235 31.37 191.52 33.2609 191.52 35.3694C191.52 37.4778 191.235 39.3781 190.666 41.0678C190.096 42.7584 189.285 44.2055 188.231 45.4108C187.177 46.6161 185.896 47.5365 184.391 48.172C182.884 48.8075 181.194 49.126 179.32 49.126ZM179.32 43.955C181.027 43.955 182.365 43.4361 183.336 42.3983C184.307 41.3613 184.792 39.8375 184.792 37.8292V32.9596C184.792 30.985 184.307 29.4791 183.336 28.4413C182.365 27.4043 181.027 26.8846 179.32 26.8846C177.613 26.8846 176.324 27.4043 175.353 28.4413C174.382 29.4791 173.898 30.9857 173.898 32.9596V37.8292C173.898 39.8375 174.382 41.3606 175.353 42.3983C176.324 43.4361 177.646 43.955 179.32 43.955Z" fill="#FBF8E7"/>
<path d="M199.954 48.5228L191.218 22.3149H197.544L201.209 33.6109L203.77 42.9495H204.121L206.682 33.6109L210.247 22.3149H216.372L207.586 48.5228H199.955H199.954Z" fill="#FBF8E7"/>
<path d="M237.007 48.5242C235.601 48.5242 234.488 48.1148 233.668 47.2938C232.848 46.4744 232.337 45.3779 232.136 44.0051H231.835C231.4 45.7121 230.512 46.9925 229.174 47.8456C227.835 48.6995 226.178 49.126 224.203 49.126C221.525 49.126 219.467 48.4255 218.028 47.0246C216.589 45.6237 215.87 43.7547 215.87 41.4185C215.87 38.7168 216.84 36.7061 218.782 35.3881C220.723 34.0702 223.484 33.4112 227.066 33.4112H231.534V31.5031C231.534 30.0309 231.149 28.8921 230.38 28.0891C229.61 27.2861 228.372 26.8839 226.665 26.8839C225.158 26.8839 223.945 27.2102 223.025 27.863C222.103 28.5157 221.325 29.2936 220.69 30.1976L216.875 26.7633C217.845 25.2489 219.134 24.028 220.741 23.1021C222.348 22.1762 224.473 21.7129 227.117 21.7129C230.665 21.7129 233.359 22.5143 235.2 24.1172C237.04 25.7208 237.962 28.025 237.962 31.0288V43.3516H240.572V48.5226H237.007L237.007 48.5242ZM226.363 44.4575C227.801 44.4575 229.024 44.1421 230.028 43.5105C231.032 42.8789 231.534 41.9475 231.534 40.718V37.2783H227.418C224.07 37.2783 222.397 38.3419 222.397 40.4691V41.3167C222.397 42.3804 222.74 43.1708 223.426 43.685C224.112 44.2008 225.091 44.4575 226.363 44.4575H226.363Z" fill="#FBF8E7"/>
</g>
<defs>
<clipPath id="clip0_1410_20415">
<rect width="240.572" height="59.8052" fill="white" transform="translate(0 0.194824)"/>
</clipPath>
</defs>
</svg>
