<svg width="159" height="40" viewBox="0 0 159 40" fill="none" xmlns="http://www.w3.org/2000/svg">
<g clip-path="url(#clip0_1410_20357)">
<path d="M19.3266 38.6549L12.8989 35.1584C13.3512 35.4042 13.8868 35.5085 14.4617 35.4272C16.0786 35.2004 17.3942 33.5957 17.3976 31.8535L23.8252 35.35C23.8218 37.0936 22.5062 38.6976 20.8893 38.9244C20.3145 39.005 19.7789 38.9014 19.3266 38.6556V38.6549Z" fill="#F47E3F"/>
<path d="M19.3271 38.6547L12.8994 35.1582C12.9285 35.1745 12.959 35.1893 12.9888 35.2049L19.4165 38.7014C19.3867 38.6866 19.3569 38.6717 19.3271 38.6547Z" fill="#F47E3F"/>
<path d="M19.4164 38.7006L12.9888 35.2041C13.1357 35.2766 13.2901 35.3341 13.4519 35.3747L19.8796 38.8713C19.7177 38.8293 19.5627 38.7717 19.4164 38.7006Z" fill="#F47E3F"/>
<path d="M19.8793 38.8726L13.4517 35.3761C13.7665 35.4566 14.1071 35.4776 14.4619 35.4275C14.7591 35.3862 15.0455 35.2975 15.3157 35.1709L21.7434 38.6674C21.4732 38.794 21.1854 38.8827 20.8896 38.924C20.5341 38.9735 20.1935 38.9532 19.8793 38.8726Z" fill="#F47E3F"/>
<path d="M21.7436 38.6672L15.3159 35.1707C15.4811 35.0928 15.6402 35.0008 15.7919 34.8965L22.2203 38.393C22.0693 38.498 21.9095 38.5894 21.7443 38.6672H21.7436Z" fill="#F47E3F"/>
<path d="M22.2206 38.3931L15.793 34.8965C15.9169 34.8112 16.0347 34.7171 16.1478 34.6162L22.5754 38.1127C22.463 38.2143 22.3445 38.3084 22.2206 38.3937V38.3931Z" fill="#F47E3F"/>
<path d="M22.5748 38.1107L16.1465 34.6142C16.2521 34.5201 16.3516 34.4185 16.4458 34.3115L22.8741 37.808C22.78 37.915 22.6798 38.0166 22.5748 38.1107Z" fill="#F47E3F"/>
<path d="M22.8749 37.8079L16.4473 34.3114C16.5407 34.2051 16.6301 34.0927 16.712 33.9756L23.1397 37.4721C23.0578 37.5892 22.9691 37.701 22.8749 37.8073V37.8079Z" fill="#F47E3F"/>
<path d="M23.1391 37.4734L16.7114 33.9768C16.7981 33.8523 16.8787 33.7229 16.9504 33.5889L23.3788 37.0854C23.3063 37.2195 23.2264 37.3495 23.1398 37.4734H23.1391Z" fill="#F47E3F"/>
<path d="M23.3784 37.0855L16.9507 33.589C17.036 33.4306 17.1105 33.2654 17.1728 33.0947L23.6011 36.5912C23.5388 36.7619 23.4637 36.9264 23.3784 37.0855Z" fill="#F47E3F"/>
<path d="M23.6007 36.5915L17.1724 33.095C17.3173 32.7016 17.3972 32.2818 17.3978 31.8525L23.8255 35.3491C23.8255 35.7777 23.7449 36.1981 23.6 36.5915H23.6007Z" fill="#F47E3F"/>
<path d="M19.2295 38.8312L12.8019 35.3347C11.9325 34.8614 11.3556 33.8945 11.3569 32.7021L17.7846 36.1987C17.7826 37.3904 18.3595 38.3579 19.2289 38.8312H19.2295Z" fill="black"/>
<path d="M19.23 38.8312L12.8023 35.3347C11.933 34.8614 11.3561 33.8945 11.3574 32.7021L17.7851 36.1987C17.7831 37.3904 18.36 38.3579 19.2293 38.8312H19.23Z" fill="black"/>
<path d="M23.8261 35.3485L17.3984 31.8513L17.4702 0.0244141L23.8979 3.52161L23.8261 35.3492V35.3485Z" fill="#F47E3F"/>
<path d="M17.7856 36.197L11.3579 32.7005L11.3924 14.4365L17.8201 17.933L17.7856 36.197Z" fill="black"/>
<path d="M8.018 38.978L1.59033 35.4815C2.05956 35.7374 2.61681 35.8444 3.21333 35.7611C4.88982 35.5248 6.25552 33.8639 6.25959 32.0547L12.6873 35.5512C12.6839 37.3611 11.3182 39.0227 9.641 39.2576C9.04448 39.3416 8.48723 39.2339 8.018 38.9787V38.978Z" fill="#F47E3F"/>
<path d="M8.018 38.9789L1.59033 35.4824C1.6208 35.4993 1.65195 35.5149 1.68309 35.5305L8.11077 39.027C8.07962 39.0114 8.04847 38.9959 8.018 38.9789Z" fill="#F47E3F"/>
<path d="M8.11029 39.0258L1.68262 35.5293C1.83496 35.6038 1.99544 35.664 2.16336 35.7067L8.59103 39.2032C8.42311 39.1606 8.26264 39.1003 8.11029 39.0258Z" fill="#F47E3F"/>
<path d="M8.59125 39.2043L2.16357 35.7077C2.49061 35.7917 2.84406 35.8127 3.2124 35.7619C3.52047 35.7186 3.81907 35.6272 4.09939 35.4951L10.5271 38.9916C10.2467 39.1237 9.94815 39.2151 9.64007 39.2577C9.27105 39.3099 8.91761 39.2882 8.59125 39.2036V39.2043Z" fill="#F47E3F"/>
<path d="M10.5278 38.9909L4.1001 35.4943C4.2714 35.4144 4.43729 35.3183 4.5937 35.21L11.0214 38.7065C10.8636 38.8155 10.6991 38.911 10.5278 38.9915V38.9909Z" fill="#F47E3F"/>
<path d="M11.0224 38.7073L4.59473 35.2108C4.7227 35.1221 4.84593 35.0246 4.96307 34.9189L11.3907 38.4155C11.2736 38.5211 11.1504 38.6186 11.0224 38.7073Z" fill="#F47E3F"/>
<path d="M11.3901 38.4145L4.9624 34.918C5.07141 34.8198 5.17501 34.7155 5.27319 34.6045L11.7009 38.101C11.6027 38.2121 11.4991 38.317 11.3901 38.4152V38.4145Z" fill="#F47E3F"/>
<path d="M11.7016 38.1014L5.27393 34.6049C5.37143 34.4945 5.46284 34.378 5.54815 34.2568L11.9758 37.7534C11.8905 37.8746 11.7998 37.991 11.7016 38.1014Z" fill="#F47E3F"/>
<path d="M11.9745 37.7535L5.54688 34.257C5.63693 34.1283 5.71953 33.9943 5.79537 33.8555L12.223 37.352C12.1486 37.4915 12.0653 37.6255 11.9745 37.7535Z" fill="#F47E3F"/>
<path d="M12.2231 37.3512L5.79541 33.8547C5.88343 33.6908 5.96062 33.5188 6.02562 33.3428L12.4533 36.8393C12.3883 37.0153 12.3111 37.1866 12.2231 37.3505V37.3512Z" fill="#F47E3F"/>
<path d="M12.454 36.839L6.02637 33.3425C6.17601 32.9349 6.25929 32.4989 6.25997 32.0547L12.6876 35.5512C12.6876 35.9961 12.6037 36.4314 12.454 36.839Z" fill="#F47E3F"/>
<path d="M10.2463 12.3496L16.674 15.8461C17.3639 16.2219 17.8223 16.9897 17.8203 17.935L11.3919 14.4384C11.394 13.4925 10.9356 12.724 10.2456 12.3496H10.2463Z" fill="black"/>
<path d="M17.8196 17.934L11.3919 14.4375C11.394 13.4916 10.9356 12.7231 10.2456 12.3486L16.6733 15.8452C17.3632 16.2209 17.8216 16.9888 17.8196 17.934Z" fill="black"/>
<path d="M12.7187 36.1752L6.29102 32.6787L6.30997 14.7871L12.7376 18.2836L12.7187 36.1752Z" fill="#F47E3F"/>
<path d="M7.92339 38.9361L1.49571 35.4396C0.595177 34.95 -0.00269922 33.9479 9.16368e-06 32.7129L6.42768 36.2094C6.42497 37.4438 7.02285 38.4452 7.92339 38.9354V38.9361Z" fill="black"/>
<path d="M7.92339 38.9361L1.49571 35.4396C0.595177 34.9493 -0.00269922 33.9472 9.16368e-06 32.7129L6.42768 36.2094C6.42497 37.4438 7.02285 38.4452 7.92339 38.9354" fill="black"/>
<path d="M23.8991 3.52225L17.4707 0.0250526L17.6515 0L24.0798 3.49652L23.8991 3.52225Z" fill="black"/>
<path d="M10.3432 12.1725L16.7709 15.669C16.3626 15.4462 15.8778 15.3528 15.3585 15.4259C13.898 15.6311 12.7104 17.0794 12.707 18.6543L6.2793 15.1578C6.28268 13.5836 7.47031 12.1352 8.9308 11.9294C9.45014 11.857 9.93494 11.9504 10.3432 12.1725Z" fill="#F47E3F"/>
<path d="M12.7065 18.6527L6.27881 15.1561C6.27881 14.7688 6.35126 14.3897 6.48194 14.0342L12.9096 17.5307C12.7789 17.8862 12.7065 18.2654 12.7065 18.6527Z" fill="#F47E3F"/>
<path d="M12.9096 17.5316L6.48193 14.0351C6.53813 13.8814 6.60584 13.7324 6.68303 13.5889L13.1107 17.0854C13.0335 17.2289 12.9658 17.3779 12.9096 17.5316Z" fill="#F47E3F"/>
<path d="M13.1108 17.0849L6.68311 13.5883C6.74811 13.4671 6.82056 13.35 6.8991 13.2383L13.3268 16.7348C13.2482 16.8472 13.1758 16.9637 13.1108 17.0849Z" fill="#F47E3F"/>
<path d="M13.3266 16.7354L6.89893 13.2389C6.97341 13.1333 7.05263 13.0317 7.13794 12.9355L13.5656 16.4321C13.481 16.5282 13.4011 16.6291 13.3266 16.7354Z" fill="#F47E3F"/>
<path d="M13.5654 16.4332L7.1377 12.9366C7.22301 12.8398 7.31374 12.7484 7.40853 12.6631L13.8362 16.1596C13.7414 16.2449 13.6507 16.337 13.5654 16.4332Z" fill="#F47E3F"/>
<path d="M13.8359 16.1586L7.4082 12.6621C7.50977 12.57 7.61675 12.4861 7.72847 12.4082L14.1561 15.9047C14.0444 15.9819 13.9374 16.0666 13.8359 16.1586Z" fill="#F47E3F"/>
<path d="M14.1567 15.9052L7.729 12.4087C7.86578 12.3145 8.00932 12.2306 8.15896 12.1602L14.5866 15.6567C14.437 15.7264 14.2941 15.8097 14.1567 15.9052Z" fill="#F47E3F"/>
<path d="M14.5869 15.6575L8.15918 12.161C8.40361 12.0466 8.66294 11.9667 8.93039 11.9288C9.25134 11.8834 9.55874 11.9024 9.84312 11.9755L16.2708 15.472C15.9864 15.3982 15.6783 15.3799 15.3581 15.4253C15.0899 15.4632 14.8306 15.5431 14.5869 15.6575Z" fill="#F47E3F"/>
<path d="M16.2704 15.4721L9.84277 11.9756C9.98835 12.0128 10.1292 12.065 10.2619 12.1306L16.6896 15.6272C16.5569 15.5622 16.4167 15.51 16.2704 15.4721Z" fill="#F47E3F"/>
<path d="M16.6889 15.6264L10.2612 12.1299C10.289 12.1434 10.3154 12.1576 10.3418 12.1719L16.7695 15.6684C16.7431 15.6535 16.716 15.6399 16.6889 15.6271V15.6264Z" fill="#F47E3F"/>
<path d="M6.4848 5.96982L0.0571289 2.47329L0.236559 2.44824L6.66423 5.94477L6.4848 5.9705V5.96982Z" fill="black"/>
<path d="M6.42767 36.2726L0 32.7754L0.056199 2.47266L6.48387 5.96986L6.42767 29.8097V36.2726Z" fill="black"/>
<path d="M24.0788 3.49707L24.0071 35.3246C24.0037 37.1765 22.6055 38.8767 20.8897 39.1177C19.1746 39.3588 17.7819 38.05 17.7846 36.1988L17.8184 17.9348C17.8204 16.4668 16.7161 15.4268 15.3558 15.6191C13.9955 15.8101 12.8864 17.1609 12.8837 18.6281L12.8648 35.3057C12.8614 37.2212 11.4138 38.983 9.6391 39.2328C7.86443 39.482 6.42289 38.1265 6.42628 36.211L6.48247 5.9705L6.66123 5.94545L6.60503 36.1859C6.60164 37.9958 7.96261 39.2735 9.6391 39.0378C11.3156 38.8022 12.6813 37.1406 12.6854 35.3314L12.7043 18.6539C12.7077 17.0796 13.8953 15.6313 15.3558 15.4255C16.8163 15.2203 18.0012 16.3355 17.9985 17.9097L17.9647 36.1737C17.9613 37.9172 19.2721 39.1516 20.8884 38.9248C22.5053 38.6979 23.8209 37.0939 23.8243 35.3511L23.896 3.52348L24.0768 3.49842H24.0782V3.49775L24.0788 3.49707Z" fill="black"/>
<path d="M29.0796 14.5312H33.136L34.884 21.622L36.2362 27.5257H36.3683L37.9513 21.622L39.963 14.5312H43.7886L45.8661 21.622L47.482 27.5257H47.6142L48.9663 21.622L50.6814 14.5312H54.6062L49.8902 31.7471H45.3387L43.129 24.1618L41.8426 19.4786H41.7439L40.4905 24.1618L38.3137 31.7471H33.8285L29.0796 14.5312Z" fill="#01020F"/>
<path d="M56.1558 31.7471V14.5312H60.3772V18.0931H60.5423C60.6518 17.6314 60.8225 17.1862 61.0533 16.7574C61.2841 16.3286 61.5859 15.9492 61.9602 15.6196C62.334 15.2901 62.7792 15.0258 63.2959 14.8279C63.8121 14.63 64.4115 14.5312 65.0933 14.5312H66.0166V18.5219H64.6974C63.2681 18.5219 62.1911 18.7311 61.4651 19.1486C60.7397 19.5665 60.3767 20.2483 60.3767 21.1932V31.7471H56.1553H56.1558Z" fill="#01020F"/>
<path d="M69.6116 12.0251C68.732 12.0251 68.0996 11.8272 67.7151 11.4313C67.33 11.0354 67.1377 10.5301 67.1377 9.91415V9.25453C67.1377 8.63913 67.33 8.13324 67.7151 7.73736C68.0996 7.34149 68.732 7.14355 69.6116 7.14355C70.4913 7.14355 71.0959 7.34149 71.4918 7.73736C71.8877 8.13324 72.0856 8.63913 72.0856 9.25453V9.91415C72.0856 10.5301 71.8877 11.0354 71.4918 11.4313C71.0959 11.8272 70.4692 12.0251 69.6116 12.0251ZM67.5007 14.5315H71.7221V31.7473H67.5007V14.5315Z" fill="#01020F"/>
<path d="M80.3621 31.7473C78.9108 31.7473 77.8059 31.3689 77.0476 30.6126C76.2893 29.8564 75.9098 28.7757 75.9098 27.3711V17.9283H73.3706V14.5315H74.6898C75.3274 14.5315 75.7618 14.3829 75.9926 14.0862C76.2235 13.7896 76.3391 13.3444 76.3391 12.7505V9.81543H80.1318V14.5315H83.6607V17.9283H80.1318V28.35H83.397V31.7468H80.3626L80.3621 31.7473Z" fill="#01020F"/>
<path d="M87.8157 12.0251C86.9361 12.0251 86.3037 11.8272 85.9192 11.4313C85.5341 11.0354 85.3418 10.5301 85.3418 9.91415V9.25453C85.3418 8.63913 85.5341 8.13324 85.9192 7.73736C86.3037 7.34149 86.9361 7.14355 87.8157 7.14355C88.6954 7.14355 89.3 7.34149 89.6959 7.73736C90.0918 8.13324 90.2897 8.63913 90.2897 9.25453V9.91415C90.2897 10.5301 90.0918 11.0354 89.6959 11.4313C89.3 11.8272 88.6733 12.0251 87.8157 12.0251ZM85.7048 14.5315H89.9262V31.7473H85.7048V14.5315Z" fill="#01020F"/>
<path d="M93.1909 31.7475V14.5316H97.4124V17.4009H97.5774C97.9291 16.4776 98.4843 15.7023 99.2431 15.0756C100.001 14.4488 101.051 14.1357 102.393 14.1357C104.174 14.1357 105.537 14.7188 106.482 15.8838C107.427 17.0493 107.9 18.7094 107.9 20.8635V31.747H103.678V21.2923C103.678 20.061 103.458 19.1376 103.019 18.5217C102.579 17.9063 101.853 17.5983 100.842 17.5983C100.402 17.5983 99.9789 17.659 99.5722 17.7798C99.165 17.9012 98.8025 18.0765 98.4838 18.3073C98.165 18.5382 97.9064 18.824 97.709 19.1649C97.5111 19.5062 97.4124 19.9067 97.4124 20.3684V31.7464H93.1909V31.7475Z" fill="#01020F"/>
<path d="M117.794 32.1433C116.562 32.1433 115.458 31.9341 114.48 31.5166C113.501 31.0992 112.666 30.494 111.973 29.7028C111.281 28.9111 110.748 27.9604 110.374 26.8499C110 25.74 109.813 24.4917 109.813 23.1066C109.813 21.7216 110 20.4795 110.374 19.3798C110.748 18.2806 111.281 17.3408 111.973 16.5598C112.666 15.7794 113.501 15.1804 114.48 14.7625C115.458 14.345 116.562 14.1357 117.794 14.1357C119.026 14.1357 120.136 14.345 121.125 14.7625C122.115 15.1804 122.955 15.7799 123.648 16.5598C124.341 17.3408 124.873 18.2806 125.247 19.3798C125.621 20.4795 125.808 21.7216 125.808 23.1066C125.808 24.4917 125.621 25.74 125.247 26.8499C124.873 27.9604 124.341 28.9111 123.648 29.7028C122.955 30.4946 122.114 31.0992 121.125 31.5166C120.136 31.9341 119.026 32.1433 117.794 32.1433ZM117.794 28.7465C118.915 28.7465 119.795 28.4057 120.433 27.724C121.07 27.0427 121.389 26.0418 121.389 24.7225V21.5237C121.389 20.2265 121.07 19.2374 120.433 18.5556C119.795 17.8744 118.915 17.5331 117.794 17.5331C116.673 17.5331 115.826 17.8744 115.189 18.5556C114.551 19.2374 114.232 20.227 114.232 21.5237V24.7225C114.232 26.0418 114.551 27.0422 115.189 27.724C115.826 28.4057 116.694 28.7465 117.794 28.7465Z" fill="#01020F"/>
<path d="M131.348 31.7471L125.61 14.5312H129.766L132.173 21.9516L133.855 28.086H134.086L135.768 21.9516L138.11 14.5312H142.134L136.362 31.7471H131.349H131.348Z" fill="#01020F"/>
<path d="M155.689 31.748C154.765 31.748 154.034 31.4791 153.495 30.9398C152.957 30.4015 152.621 29.6812 152.489 28.7794H152.291C152.005 29.9007 151.422 30.7418 150.543 31.3022C149.664 31.8631 148.575 32.1433 147.278 32.1433C145.519 32.1433 144.167 31.6832 143.222 30.7629C142.276 29.8426 141.804 28.6149 141.804 27.0803C141.804 25.3055 142.441 23.9848 143.717 23.119C144.992 22.2532 146.806 21.8203 149.159 21.8203H152.094V20.5669C152.094 19.5998 151.841 18.8518 151.336 18.3243C150.83 17.7968 150.016 17.5325 148.895 17.5325C147.905 17.5325 147.108 17.7469 146.504 18.1757C145.899 18.6045 145.388 19.1155 144.97 19.7093L142.464 17.4534C143.101 16.4585 143.948 15.6565 145.004 15.0483C146.059 14.4401 147.455 14.1357 149.192 14.1357C151.523 14.1357 153.292 14.6622 154.502 15.7151C155.711 16.7686 156.316 18.2821 156.316 20.2553V28.3502H158.031V31.747H155.689L155.689 31.748ZM148.697 29.0766C149.641 29.0766 150.445 28.8694 151.104 28.4545C151.764 28.0396 152.094 27.4278 152.094 26.6201V24.3606H149.39C147.191 24.3606 146.091 25.0593 146.091 26.4566V27.0134C146.091 27.7121 146.317 28.2314 146.768 28.5692C147.218 28.908 147.861 29.0766 148.697 29.0766H148.697Z" fill="#01020F"/>
</g>
<defs>
<clipPath id="clip0_1410_20357">
<rect width="158.031" height="39.2861" fill="white"/>
</clipPath>
</defs>
</svg>
