<svg width="37" height="37" viewBox="0 0 37 37" fill="none" xmlns="http://www.w3.org/2000/svg">
<circle cx="18.4951" cy="18.6333" r="17.3382" fill="white" stroke="#56CCF0" stroke-width="1.62963"/>
<g clip-path="url(#clip0_1170_17274)">
<path d="M21.7969 17.8125C21.7969 18.689 21.4487 19.5295 20.829 20.1493C20.2092 20.769 19.3686 21.1172 18.4922 21.1172C17.6157 21.1172 16.7752 20.769 16.1554 20.1493C15.5357 19.5295 15.1875 18.689 15.1875 17.8125V13.6816C15.1875 12.8052 15.5357 11.9646 16.1554 11.3449C16.7752 10.7251 17.6157 10.377 18.4922 10.377C19.3686 10.377 20.2092 10.7251 20.829 11.3449C21.4487 11.9646 21.7969 12.8052 21.7969 13.6816V17.8125Z" stroke="#131316" stroke-width="1.62963" stroke-miterlimit="10"/>
<path d="M25.1069 17.813C25.1069 19.5659 24.4106 21.247 23.1711 22.4865C21.9316 23.726 20.2505 24.4224 18.4976 24.4224C16.7446 24.4224 15.0635 23.726 13.824 22.4865C12.5845 21.247 11.8882 19.5659 11.8882 17.813" stroke="#131316" stroke-width="1.62963" stroke-linecap="round" stroke-linejoin="round"/>
<path d="M18.4966 24.4214V26.8999" stroke="#131316" stroke-width="1.62963" stroke-linecap="round" stroke-linejoin="round"/>
</g>
<defs>
<clipPath id="clip0_1170_17274">
<rect width="14.8711" height="18.1758" fill="white" transform="translate(11.0591 9.55176)"/>
</clipPath>
</defs>
</svg>
