<svg width="202" height="168" viewBox="0 0 202 168" fill="none" xmlns="http://www.w3.org/2000/svg">
<rect x="0.588379" y="0.199707" width="200.76" height="166.887" rx="13.037" fill="#131316"/>
<path d="M34.1146 30.5339V32.0071H31.6897V39.6338H29.8645V32.0071H27.4396V30.5339H34.1146ZM42.1604 35.8661C42.1604 36.1268 42.143 36.3615 42.1083 36.5701H36.8282C36.8717 37.0916 37.0542 37.5001 37.3758 37.7956C37.6974 38.0911 38.0928 38.2388 38.5622 38.2388C39.2401 38.2388 39.7225 37.9477 40.0093 37.3653H41.9779C41.7693 38.0607 41.3695 38.6343 40.7785 39.0862C40.1875 39.5295 39.4617 39.7511 38.6013 39.7511C37.906 39.7511 37.2802 39.599 36.724 39.2948C36.1764 38.9819 35.7462 38.543 35.4333 37.9781C35.1291 37.4131 34.977 36.7613 34.977 36.0225C34.977 35.2751 35.1291 34.6189 35.4333 34.0539C35.7375 33.489 36.1634 33.0544 36.7109 32.7502C37.2585 32.446 37.8886 32.2939 38.6013 32.2939C39.2879 32.2939 39.9006 32.4417 40.4395 32.7372C40.9871 33.0327 41.4086 33.4542 41.7041 34.0018C42.0083 34.5407 42.1604 35.1621 42.1604 35.8661ZM40.27 35.3446C40.2613 34.8753 40.0919 34.5015 39.7616 34.2234C39.4313 33.9366 39.0272 33.7932 38.5491 33.7932C38.0972 33.7932 37.7148 33.9323 37.4019 34.2104C37.0977 34.4798 36.9108 34.8579 36.8413 35.3446H40.27ZM43.0233 35.9965C43.0233 35.2664 43.1667 34.6189 43.4535 34.0539C43.749 33.489 44.1445 33.0544 44.6399 32.7502C45.144 32.446 45.7046 32.2939 46.3217 32.2939C46.8605 32.2939 47.3299 32.4026 47.7297 32.6199C48.1382 32.8371 48.4641 33.1109 48.7074 33.4412V32.4113H50.5457V39.6338H48.7074V38.5778C48.4728 38.9168 48.1468 39.1992 47.7297 39.4252C47.3212 39.6425 46.8475 39.7511 46.3086 39.7511C45.7002 39.7511 45.144 39.5947 44.6399 39.2818C44.1445 38.9689 43.749 38.53 43.4535 37.965C43.1667 37.3914 43.0233 36.7352 43.0233 35.9965ZM48.7074 36.0225C48.7074 35.5793 48.6205 35.2012 48.4467 34.8883C48.2729 34.5667 48.0382 34.3234 47.7427 34.1582C47.4472 33.9844 47.13 33.8975 46.791 33.8975C46.452 33.8975 46.1391 33.9801 45.8523 34.1452C45.5655 34.3103 45.3308 34.5537 45.1483 34.8753C44.9745 35.1882 44.8876 35.5619 44.8876 35.9965C44.8876 36.431 44.9745 36.8134 45.1483 37.1437C45.3308 37.4653 45.5655 37.713 45.8523 37.8868C46.1478 38.0607 46.4607 38.1476 46.791 38.1476C47.13 38.1476 47.4472 38.065 47.7427 37.8999C48.0382 37.726 48.2729 37.4827 48.4467 37.1698C48.6205 36.8482 48.7074 36.4658 48.7074 36.0225ZM61.2978 32.307C62.1843 32.307 62.897 32.5808 63.4358 33.1283C63.9834 33.6672 64.2572 34.4233 64.2572 35.3968V39.6338H62.432V35.6445C62.432 35.0795 62.2886 34.6493 62.0018 34.3538C61.7149 34.0496 61.3238 33.8975 60.8284 33.8975C60.333 33.8975 59.9376 34.0496 59.642 34.3538C59.3552 34.6493 59.2118 35.0795 59.2118 35.6445V39.6338H57.3866V35.6445C57.3866 35.0795 57.2432 34.6493 56.9564 34.3538C56.6696 34.0496 56.2785 33.8975 55.7831 33.8975C55.279 33.8975 54.8792 34.0496 54.5837 34.3538C54.2969 34.6493 54.1535 35.0795 54.1535 35.6445V39.6338H52.3283V32.4113H54.1535V33.2848C54.3881 32.9806 54.688 32.7415 55.053 32.5677C55.4267 32.3939 55.8352 32.307 56.2785 32.307C56.8434 32.307 57.3475 32.4287 57.7908 32.672C58.234 32.9067 58.5774 33.2456 58.8207 33.6889C59.0554 33.2717 59.3943 32.9371 59.8376 32.685C60.2896 32.433 60.7763 32.307 61.2978 32.307ZM68.6263 36.0225C68.6263 35.2751 68.7784 34.6232 69.0826 34.067C69.3868 33.502 69.8083 33.0675 70.3472 32.7633C70.8861 32.4504 71.5031 32.2939 72.1984 32.2939C73.0937 32.2939 73.8324 32.5199 74.4147 32.9719C75.0058 33.4151 75.4012 34.0409 75.6011 34.8492H73.6325C73.5282 34.5363 73.3501 34.2929 73.098 34.1191C72.8546 33.9366 72.5504 33.8453 72.1854 33.8453C71.6639 33.8453 71.2511 34.0366 70.9469 34.419C70.6427 34.7927 70.4906 35.3272 70.4906 36.0225C70.4906 36.7091 70.6427 37.2437 70.9469 37.6261C71.2511 37.9998 71.6639 38.1867 72.1854 38.1867C72.9242 38.1867 73.4065 37.8564 73.6325 37.1959H75.6011C75.4012 37.9781 75.0058 38.5995 74.4147 39.0602C73.8237 39.5208 73.085 39.7511 72.1984 39.7511C71.5031 39.7511 70.8861 39.599 70.3472 39.2948C69.8083 38.9819 69.3868 38.5474 69.0826 37.9911C68.7784 37.4262 68.6263 36.77 68.6263 36.0225ZM76.4689 35.9965C76.4689 35.2664 76.6123 34.6189 76.8991 34.0539C77.1946 33.489 77.5901 33.0544 78.0855 32.7502C78.5896 32.446 79.1502 32.2939 79.7673 32.2939C80.3061 32.2939 80.7755 32.4026 81.1753 32.6199C81.5838 32.8371 81.9097 33.1109 82.153 33.4412V32.4113H83.9913V39.6338H82.153V38.5778C81.9184 38.9168 81.5924 39.1992 81.1753 39.4252C80.7668 39.6425 80.2931 39.7511 79.7542 39.7511C79.1458 39.7511 78.5896 39.5947 78.0855 39.2818C77.5901 38.9689 77.1946 38.53 76.8991 37.965C76.6123 37.3914 76.4689 36.7352 76.4689 35.9965ZM82.153 36.0225C82.153 35.5793 82.0661 35.2012 81.8923 34.8883C81.7185 34.5667 81.4838 34.3234 81.1883 34.1582C80.8928 33.9844 80.5756 33.8975 80.2366 33.8975C79.8976 33.8975 79.5847 33.9801 79.2979 34.1452C79.0111 34.3103 78.7764 34.5537 78.5939 34.8753C78.4201 35.1882 78.3332 35.5619 78.3332 35.9965C78.3332 36.431 78.4201 36.8134 78.5939 37.1437C78.7764 37.4653 79.0111 37.713 79.2979 37.8868C79.5934 38.0607 79.9063 38.1476 80.2366 38.1476C80.5756 38.1476 80.8928 38.065 81.1883 37.8999C81.4838 37.726 81.7185 37.4827 81.8923 37.1698C82.0661 36.8482 82.153 36.4658 82.153 36.0225ZM87.5991 29.9864V39.6338H85.7739V29.9864H87.5991ZM91.2275 29.9864V39.6338H89.4023V29.9864H91.2275Z" fill="white"/>
<path d="M31.6262 52.2665L29.7765 55.8028V57.9458H29.0351V55.8028L27.1773 52.2665H28.0002L29.4017 55.1428L30.8032 52.2665H31.6262ZM34.3557 58.0191C33.9374 58.0191 33.5571 57.9241 33.2149 57.7339C32.8781 57.5438 32.612 57.2749 32.4164 56.9273C32.2263 56.5742 32.1312 56.1668 32.1312 55.7051C32.1312 55.2488 32.229 54.8468 32.4246 54.4991C32.6255 54.146 32.8971 53.8772 33.2394 53.6925C33.5816 53.5023 33.9646 53.4073 34.3883 53.4073C34.812 53.4073 35.1949 53.5023 35.5371 53.6925C35.8794 53.8772 36.1483 54.1433 36.3438 54.491C36.5448 54.8386 36.6453 55.2433 36.6453 55.7051C36.6453 56.1668 36.5421 56.5742 36.3357 56.9273C36.1347 57.2749 35.8604 57.5438 35.5127 57.7339C35.1651 57.9241 34.7794 58.0191 34.3557 58.0191ZM34.3557 57.3673C34.6218 57.3673 34.8717 57.3048 35.1053 57.1799C35.3389 57.0549 35.5263 56.8675 35.6675 56.6177C35.8142 56.3678 35.8875 56.0636 35.8875 55.7051C35.8875 55.3465 35.8169 55.0423 35.6757 54.7925C35.5344 54.5426 35.3497 54.3579 35.1216 54.2384C34.8934 54.1135 34.6463 54.051 34.3801 54.051C34.1085 54.051 33.8586 54.1135 33.6305 54.2384C33.4078 54.3579 33.2285 54.5426 33.0927 54.7925C32.9569 55.0423 32.889 55.3465 32.889 55.7051C32.889 56.069 32.9542 56.3759 33.0846 56.6258C33.2204 56.8757 33.3996 57.0631 33.6223 57.188C33.8451 57.3075 34.0895 57.3673 34.3557 57.3673ZM41.5802 53.4806V57.9458H40.8387V57.2858C40.6975 57.5139 40.4992 57.6932 40.2439 57.8236C39.994 57.9485 39.717 58.011 39.4128 58.011C39.0651 58.011 38.7528 57.9404 38.4758 57.7991C38.1987 57.6525 37.9787 57.4352 37.8158 57.1473C37.6582 56.8594 37.5795 56.509 37.5795 56.0962V53.4806H38.3128V55.9984C38.3128 56.4384 38.4242 56.7779 38.6469 57.0169C38.8696 57.2505 39.1738 57.3673 39.5595 57.3673C39.956 57.3673 40.2684 57.2451 40.4965 57.0006C40.7247 56.7562 40.8387 56.4004 40.8387 55.9332V53.4806H41.5802ZM42.9462 52.2665H43.7692L42.987 54.1162H42.4655L42.9462 52.2665ZM46.2768 57.2614L47.662 53.4806H48.4523L46.7005 57.9458H45.8368L44.0849 53.4806H44.8835L46.2768 57.2614ZM53.2561 55.5421C53.2561 55.6833 53.2479 55.8327 53.2316 55.9902H49.6627C49.6899 56.4302 49.8393 56.7752 50.1109 57.0251C50.3879 57.2695 50.722 57.3917 51.1131 57.3917C51.4336 57.3917 51.6998 57.3184 51.9116 57.1717C52.1289 57.0196 52.281 56.8186 52.3679 56.5688H53.1664C53.0469 56.9979 52.8079 57.3483 52.4494 57.6199C52.0909 57.886 51.6454 58.0191 51.1131 58.0191C50.6894 58.0191 50.3091 57.9241 49.9724 57.7339C49.641 57.5438 49.3803 57.2749 49.1901 56.9273C49 56.5742 48.9049 56.1668 48.9049 55.7051C48.9049 55.2433 48.9973 54.8386 49.182 54.491C49.3667 54.1433 49.6247 53.8772 49.9561 53.6925C50.2929 53.5023 50.6785 53.4073 51.1131 53.4073C51.5368 53.4073 51.9116 53.4996 52.2375 53.6843C52.5635 53.869 52.8133 54.1243 52.9872 54.4502C53.1664 54.7707 53.2561 55.1347 53.2561 55.5421ZM52.4901 55.3873C52.4901 55.1048 52.4277 54.8631 52.3027 54.6621C52.1778 54.4557 52.0067 54.3009 51.7894 54.1977C51.5775 54.089 51.3412 54.0347 51.0805 54.0347C50.7057 54.0347 50.3852 54.1542 50.119 54.3932C49.8583 54.6322 49.7089 54.9636 49.6709 55.3873H52.4901ZM57.1486 54.3117C57.3007 54.0456 57.5234 53.8283 57.8167 53.6599C58.1101 53.4915 58.4441 53.4073 58.819 53.4073C59.2209 53.4073 59.5822 53.5023 59.9027 53.6925C60.2232 53.8826 60.4757 54.1515 60.6604 54.4991C60.8451 54.8414 60.9375 55.2406 60.9375 55.6969C60.9375 56.1478 60.8451 56.5498 60.6604 56.9028C60.4757 57.2559 60.2204 57.5302 59.8945 57.7258C59.574 57.9214 59.2155 58.0191 58.819 58.0191C58.4333 58.0191 58.0938 57.9349 57.8004 57.7665C57.5125 57.5981 57.2953 57.3836 57.1486 57.1228V57.9458H56.4071V51.9162H57.1486V54.3117ZM60.1797 55.6969C60.1797 55.3601 60.1118 55.0668 59.976 54.8169C59.8402 54.567 59.6555 54.3769 59.4219 54.2465C59.1938 54.1162 58.9412 54.051 58.6641 54.051C58.3925 54.051 58.1399 54.1189 57.9064 54.2547C57.6782 54.3851 57.4935 54.5779 57.3523 54.8332C57.2165 55.0831 57.1486 55.3737 57.1486 55.7051C57.1486 56.0418 57.2165 56.3379 57.3523 56.5932C57.4935 56.8431 57.6782 57.0359 57.9064 57.1717C58.1399 57.3021 58.3925 57.3673 58.6641 57.3673C58.9412 57.3673 59.1938 57.3021 59.4219 57.1717C59.6555 57.0359 59.8402 56.8431 59.976 56.5932C60.1118 56.3379 60.1797 56.0391 60.1797 55.6969ZM65.9875 55.5421C65.9875 55.6833 65.9794 55.8327 65.9631 55.9902H62.3942C62.4214 56.4302 62.5708 56.7752 62.8424 57.0251C63.1194 57.2695 63.4535 57.3917 63.8446 57.3917C64.1651 57.3917 64.4312 57.3184 64.6431 57.1717C64.8604 57.0196 65.0125 56.8186 65.0994 56.5688H65.8979C65.7784 56.9979 65.5394 57.3483 65.1809 57.6199C64.8224 57.886 64.3769 58.0191 63.8446 58.0191C63.4209 58.0191 63.0406 57.9241 62.7038 57.7339C62.3725 57.5438 62.1117 57.2749 61.9216 56.9273C61.7315 56.5742 61.6364 56.1668 61.6364 55.7051C61.6364 55.2433 61.7288 54.8386 61.9135 54.491C62.0982 54.1433 62.3562 53.8772 62.6875 53.6925C63.0243 53.5023 63.41 53.4073 63.8446 53.4073C64.2683 53.4073 64.6431 53.4996 64.969 53.6843C65.2949 53.869 65.5448 54.1243 65.7187 54.4502C65.8979 54.7707 65.9875 55.1347 65.9875 55.5421ZM65.2216 55.3873C65.2216 55.1048 65.1591 54.8631 65.0342 54.6621C64.9093 54.4557 64.7382 54.3009 64.5209 54.1977C64.309 54.089 64.0727 54.0347 63.812 54.0347C63.4372 54.0347 63.1167 54.1542 62.8505 54.3932C62.5898 54.6322 62.4404 54.9636 62.4024 55.3873H65.2216ZM71.0403 55.5421C71.0403 55.6833 71.0322 55.8327 71.0159 55.9902H67.447C67.4742 56.4302 67.6236 56.7752 67.8952 57.0251C68.1722 57.2695 68.5063 57.3917 68.8974 57.3917C69.2179 57.3917 69.4841 57.3184 69.6959 57.1717C69.9132 57.0196 70.0653 56.8186 70.1522 56.5688H70.9507C70.8312 56.9979 70.5922 57.3483 70.2337 57.6199C69.8752 57.886 69.4297 58.0191 68.8974 58.0191C68.4737 58.0191 68.0934 57.9241 67.7566 57.7339C67.4253 57.5438 67.1645 57.2749 66.9744 56.9273C66.7843 56.5742 66.6892 56.1668 66.6892 55.7051C66.6892 55.2433 66.7816 54.8386 66.9663 54.491C67.151 54.1433 67.409 53.8772 67.7403 53.6925C68.0771 53.5023 68.4628 53.4073 68.8974 53.4073C69.3211 53.4073 69.6959 53.4996 70.0218 53.6843C70.3478 53.869 70.5976 54.1243 70.7715 54.4502C70.9507 54.7707 71.0403 55.1347 71.0403 55.5421ZM70.2744 55.3873C70.2744 55.1048 70.212 54.8631 70.087 54.6621C69.9621 54.4557 69.791 54.3009 69.5737 54.1977C69.3618 54.089 69.1255 54.0347 68.8648 54.0347C68.49 54.0347 68.1695 54.1542 67.9033 54.3932C67.6426 54.6322 67.4932 54.9636 67.4552 55.3873H70.2744ZM74.1946 53.3991C74.7378 53.3991 75.1778 53.5648 75.5146 53.8962C75.8514 54.2221 76.0198 54.6947 76.0198 55.3139V57.9458H75.2865V55.4199C75.2865 54.9744 75.1751 54.6349 74.9524 54.4014C74.7297 54.1623 74.4255 54.0428 74.0398 54.0428C73.6487 54.0428 73.3364 54.1651 73.1028 54.4095C72.8746 54.6539 72.7606 55.0098 72.7606 55.4769V57.9458H72.0191V53.4806H72.7606V54.1162C72.9072 53.888 73.1055 53.7115 73.3554 53.5865C73.6107 53.4616 73.8904 53.3991 74.1946 53.3991ZM79.7863 52.7554C79.6451 52.7554 79.5256 52.7065 79.4278 52.6088C79.33 52.511 79.2811 52.3915 79.2811 52.2502C79.2811 52.109 79.33 51.9895 79.4278 51.8917C79.5256 51.7939 79.6451 51.7451 79.7863 51.7451C79.9221 51.7451 80.0362 51.7939 80.1285 51.8917C80.2263 51.9895 80.2752 52.109 80.2752 52.2502C80.2752 52.3915 80.2263 52.511 80.1285 52.6088C80.0362 52.7065 79.9221 52.7554 79.7863 52.7554ZM80.1448 53.4806V57.9458H79.4033V53.4806H80.1448ZM83.5841 53.3991C84.1273 53.3991 84.5673 53.5648 84.9041 53.8962C85.2409 54.2221 85.4093 54.6947 85.4093 55.3139V57.9458H84.676V55.4199C84.676 54.9744 84.5646 54.6349 84.3419 54.4014C84.1192 54.1623 83.815 54.0428 83.4293 54.0428C83.0382 54.0428 82.7258 54.1651 82.4923 54.4095C82.2641 54.6539 82.15 55.0098 82.15 55.4769V57.9458H81.4086V53.4806H82.15V54.1162C82.2967 53.888 82.495 53.7115 82.7448 53.5865C83.0002 53.4616 83.2799 53.3991 83.5841 53.3991ZM88.2827 57.2614L89.6679 53.4806H90.4583L88.7064 57.9458H87.8427L86.0909 53.4806H86.8894L88.2827 57.2614ZM91.5709 52.7554C91.4296 52.7554 91.3101 52.7065 91.2124 52.6088C91.1146 52.511 91.0657 52.3915 91.0657 52.2502C91.0657 52.109 91.1146 51.9895 91.2124 51.8917C91.3101 51.7939 91.4296 51.7451 91.5709 51.7451C91.7067 51.7451 91.8208 51.7939 91.9131 51.8917C92.0109 51.9895 92.0598 52.109 92.0598 52.2502C92.0598 52.3915 92.0109 52.511 91.9131 52.6088C91.8208 52.7065 91.7067 52.7554 91.5709 52.7554ZM91.9294 53.4806V57.9458H91.1879V53.4806H91.9294ZM94.0976 54.0917V56.7236C94.0976 56.9409 94.1437 57.0957 94.2361 57.188C94.3284 57.2749 94.4887 57.3184 94.7168 57.3184H95.2628V57.9458H94.5946C94.1818 57.9458 93.8721 57.8507 93.6657 57.6606C93.4593 57.4705 93.3561 57.1581 93.3561 56.7236V54.0917H92.7776V53.4806H93.3561V52.3562H94.0976V53.4806H95.2628V54.0917H94.0976ZM100.235 55.5421C100.235 55.6833 100.227 55.8327 100.211 55.9902H96.6419C96.6691 56.4302 96.8184 56.7752 97.09 57.0251C97.3671 57.2695 97.7012 57.3917 98.0923 57.3917C98.4128 57.3917 98.6789 57.3184 98.8908 57.1717C99.1081 57.0196 99.2602 56.8186 99.3471 56.5688H100.146C100.026 56.9979 99.7871 57.3483 99.4286 57.6199C99.07 57.886 98.6246 58.0191 98.0923 58.0191C97.6686 58.0191 97.2883 57.9241 96.9515 57.7339C96.6202 57.5438 96.3594 57.2749 96.1693 56.9273C95.9792 56.5742 95.8841 56.1668 95.8841 55.7051C95.8841 55.2433 95.9765 54.8386 96.1612 54.491C96.3458 54.1433 96.6039 53.8772 96.9352 53.6925C97.272 53.5023 97.6577 53.4073 98.0923 53.4073C98.516 53.4073 98.8908 53.4996 99.2167 53.6843C99.5426 53.869 99.7925 54.1243 99.9663 54.4502C100.146 54.7707 100.235 55.1347 100.235 55.5421ZM99.4693 55.3873C99.4693 55.1048 99.4068 54.8631 99.2819 54.6621C99.157 54.4557 98.9858 54.3009 98.7686 54.1977C98.5567 54.089 98.3204 54.0347 98.0597 54.0347C97.6849 54.0347 97.3644 54.1542 97.0982 54.3932C96.8374 54.6322 96.6881 54.9636 96.65 55.3873H99.4693ZM100.937 55.6969C100.937 55.2406 101.029 54.8414 101.214 54.4991C101.399 54.1515 101.651 53.8826 101.972 53.6925C102.298 53.5023 102.662 53.4073 103.064 53.4073C103.411 53.4073 103.734 53.4888 104.033 53.6517C104.332 53.8093 104.56 54.0184 104.718 54.2791V51.9162H105.467V57.9458H104.718V57.1065C104.571 57.3727 104.354 57.5927 104.066 57.7665C103.778 57.9349 103.441 58.0191 103.055 58.0191C102.659 58.0191 102.298 57.9214 101.972 57.7258C101.651 57.5302 101.399 57.2559 101.214 56.9028C101.029 56.5498 100.937 56.1478 100.937 55.6969ZM104.718 55.7051C104.718 55.3683 104.65 55.0749 104.514 54.8251C104.378 54.5752 104.193 54.3851 103.96 54.2547C103.732 54.1189 103.479 54.051 103.202 54.051C102.925 54.051 102.672 54.1162 102.444 54.2465C102.216 54.3769 102.034 54.567 101.898 54.8169C101.763 55.0668 101.695 55.3601 101.695 55.6969C101.695 56.0391 101.763 56.3379 101.898 56.5932C102.034 56.8431 102.216 57.0359 102.444 57.1717C102.672 57.3021 102.925 57.3673 103.202 57.3673C103.479 57.3673 103.732 57.3021 103.96 57.1717C104.193 57.0359 104.378 56.8431 104.514 56.5932C104.65 56.3379 104.718 56.0418 104.718 55.7051ZM109.797 54.0917V56.7236C109.797 56.9409 109.843 57.0957 109.936 57.188C110.028 57.2749 110.188 57.3184 110.416 57.3184H110.962V57.9458H110.294C109.881 57.9458 109.572 57.8507 109.365 57.6606C109.159 57.4705 109.056 57.1581 109.056 56.7236V54.0917H108.477V53.4806H109.056V52.3562H109.797V53.4806H110.962V54.0917H109.797ZM113.808 58.0191C113.39 58.0191 113.01 57.9241 112.667 57.7339C112.331 57.5438 112.064 57.2749 111.869 56.9273C111.679 56.5742 111.584 56.1668 111.584 55.7051C111.584 55.2488 111.681 54.8468 111.877 54.4991C112.078 54.146 112.35 53.8772 112.692 53.6925C113.034 53.5023 113.417 53.4073 113.841 53.4073C114.264 53.4073 114.647 53.5023 114.99 53.6925C115.332 53.8772 115.601 54.1433 115.796 54.491C115.997 54.8386 116.098 55.2433 116.098 55.7051C116.098 56.1668 115.994 56.5742 115.788 56.9273C115.587 57.2749 115.313 57.5438 114.965 57.7339C114.617 57.9241 114.232 58.0191 113.808 58.0191ZM113.808 57.3673C114.074 57.3673 114.324 57.3048 114.558 57.1799C114.791 57.0549 114.979 56.8675 115.12 56.6177C115.267 56.3678 115.34 56.0636 115.34 55.7051C115.34 55.3465 115.269 55.0423 115.128 54.7925C114.987 54.5426 114.802 54.3579 114.574 54.2384C114.346 54.1135 114.099 54.051 113.833 54.051C113.561 54.051 113.311 54.1135 113.083 54.2384C112.86 54.3579 112.681 54.5426 112.545 54.7925C112.409 55.0423 112.341 55.3465 112.341 55.7051C112.341 56.069 112.407 56.3759 112.537 56.6258C112.673 56.8757 112.852 57.0631 113.075 57.188C113.297 57.3075 113.542 57.3673 113.808 57.3673ZM118.968 55.6969C118.968 55.2406 119.06 54.8414 119.245 54.4991C119.43 54.1515 119.682 53.8826 120.003 53.6925C120.329 53.5023 120.69 53.4073 121.086 53.4073C121.478 53.4073 121.817 53.4915 122.105 53.6599C122.393 53.8283 122.607 54.0401 122.749 54.2954V53.4806H123.498V57.9458H122.749V57.1147C122.602 57.3754 122.382 57.5927 122.089 57.7665C121.801 57.9349 121.464 58.0191 121.078 58.0191C120.682 58.0191 120.323 57.9214 120.003 57.7258C119.682 57.5302 119.43 57.2559 119.245 56.9028C119.06 56.5498 118.968 56.1478 118.968 55.6969ZM122.749 55.7051C122.749 55.3683 122.681 55.0749 122.545 54.8251C122.409 54.5752 122.224 54.3851 121.991 54.2547C121.763 54.1189 121.51 54.051 121.233 54.051C120.956 54.051 120.703 54.1162 120.475 54.2465C120.247 54.3769 120.065 54.567 119.929 54.8169C119.794 55.0668 119.726 55.3601 119.726 55.6969C119.726 56.0391 119.794 56.3379 119.929 56.5932C120.065 56.8431 120.247 57.0359 120.475 57.1717C120.703 57.3021 120.956 57.3673 121.233 57.3673C121.51 57.3673 121.763 57.3021 121.991 57.1717C122.224 57.0359 122.409 56.8431 122.545 56.5932C122.681 56.3379 122.749 56.0418 122.749 55.7051ZM128.586 57.2614L129.971 53.4806H130.761L129.01 57.9458H128.146L126.394 53.4806H127.192L128.586 57.2614ZM131.874 52.7554C131.733 52.7554 131.613 52.7065 131.515 52.6088C131.418 52.511 131.369 52.3915 131.369 52.2502C131.369 52.109 131.418 51.9895 131.515 51.8917C131.613 51.7939 131.733 51.7451 131.874 51.7451C132.01 51.7451 132.124 51.7939 132.216 51.8917C132.314 51.9895 132.363 52.109 132.363 52.2502C132.363 52.3915 132.314 52.511 132.216 52.6088C132.124 52.7065 132.01 52.7554 131.874 52.7554ZM132.232 53.4806V57.9458H131.491V53.4806H132.232ZM134.238 54.2058C134.368 53.9505 134.553 53.7522 134.792 53.611C135.036 53.4698 135.332 53.3991 135.68 53.3991V54.1651H135.484C134.653 54.1651 134.238 54.6159 134.238 55.5177V57.9458H133.496V53.4806H134.238V54.2058ZM137.44 54.0917V56.7236C137.44 56.9409 137.486 57.0957 137.579 57.188C137.671 57.2749 137.831 57.3184 138.06 57.3184H138.605V57.9458H137.937C137.525 57.9458 137.215 57.8507 137.008 57.6606C136.802 57.4705 136.699 57.1581 136.699 56.7236V54.0917H136.12V53.4806H136.699V52.3562H137.44V53.4806H138.605V54.0917H137.44ZM143.464 53.4806V57.9458H142.722V57.2858C142.581 57.5139 142.383 57.6932 142.128 57.8236C141.878 57.9485 141.601 58.011 141.296 58.011C140.949 58.011 140.636 57.9404 140.359 57.7991C140.082 57.6525 139.862 57.4352 139.699 57.1473C139.542 56.8594 139.463 56.509 139.463 56.0962V53.4806H140.196V55.9984C140.196 56.4384 140.308 56.7779 140.531 57.0169C140.753 57.2505 141.057 57.3673 141.443 57.3673C141.84 57.3673 142.152 57.2451 142.38 57.0006C142.608 56.7562 142.722 56.4004 142.722 55.9332V53.4806H143.464ZM144.439 55.6969C144.439 55.2406 144.531 54.8414 144.716 54.4991C144.901 54.1515 145.153 53.8826 145.474 53.6925C145.8 53.5023 146.161 53.4073 146.557 53.4073C146.948 53.4073 147.288 53.4915 147.576 53.6599C147.864 53.8283 148.078 54.0401 148.22 54.2954V53.4806H148.969V57.9458H148.22V57.1147C148.073 57.3754 147.853 57.5927 147.56 57.7665C147.272 57.9349 146.935 58.0191 146.549 58.0191C146.153 58.0191 145.794 57.9214 145.474 57.7258C145.153 57.5302 144.901 57.2559 144.716 56.9028C144.531 56.5498 144.439 56.1478 144.439 55.6969ZM148.22 55.7051C148.22 55.3683 148.152 55.0749 148.016 54.8251C147.88 54.5752 147.695 54.3851 147.462 54.2547C147.234 54.1189 146.981 54.051 146.704 54.051C146.427 54.051 146.174 54.1162 145.946 54.2465C145.718 54.3769 145.536 54.567 145.4 54.8169C145.264 55.0668 145.197 55.3601 145.197 55.6969C145.197 56.0391 145.264 56.3379 145.4 56.5932C145.536 56.8431 145.718 57.0359 145.946 57.1717C146.174 57.3021 146.427 57.3673 146.704 57.3673C146.981 57.3673 147.234 57.3021 147.462 57.1717C147.695 57.0359 147.88 56.8431 148.016 56.5932C148.152 56.3379 148.22 56.0418 148.22 55.7051ZM150.964 51.9162V57.9458H150.222V51.9162H150.964ZM33.0195 65.3991C33.3672 65.3991 33.6768 65.4725 33.9484 65.6191C34.22 65.7604 34.4346 65.9749 34.5921 66.2628C34.7496 66.5507 34.8284 66.9011 34.8284 67.3139V69.9458H34.0951V67.4199C34.0951 66.9744 33.9837 66.6349 33.761 66.4014C33.5437 66.1623 33.2476 66.0428 32.8728 66.0428C32.4872 66.0428 32.1802 66.1678 31.9521 66.4177C31.7239 66.6621 31.6099 67.0179 31.6099 67.4851V69.9458H30.8765V67.4199C30.8765 66.9744 30.7652 66.6349 30.5425 66.4014C30.3252 66.1623 30.0291 66.0428 29.6543 66.0428C29.2686 66.0428 28.9617 66.1678 28.7336 66.4177C28.5054 66.6621 28.3913 67.0179 28.3913 67.4851V69.9458H27.6499V65.4806H28.3913V66.1243C28.538 65.8907 28.7336 65.7115 28.978 65.5865C29.2279 65.4616 29.5022 65.3991 29.801 65.3991C30.1758 65.3991 30.5072 65.4833 30.7951 65.6517C31.083 65.8201 31.2975 66.0673 31.4388 66.3932C31.5637 66.0781 31.7701 65.8337 32.058 65.6599C32.3459 65.486 32.6664 65.3991 33.0195 65.3991ZM40.1188 67.5421C40.1188 67.6833 40.1106 67.8327 40.0943 67.9902H36.5254C36.5526 68.4302 36.702 68.7752 36.9736 69.0251C37.2506 69.2695 37.5847 69.3917 37.9758 69.3917C38.2963 69.3917 38.5625 69.3184 38.7743 69.1717C38.9916 69.0196 39.1437 68.8186 39.2306 68.5688H40.0291C39.9096 68.9979 39.6706 69.3483 39.3121 69.6199C38.9536 69.886 38.5081 70.0191 37.9758 70.0191C37.5521 70.0191 37.1719 69.9241 36.8351 69.7339C36.5037 69.5438 36.243 69.2749 36.0528 68.9273C35.8627 68.5742 35.7677 68.1668 35.7677 67.7051C35.7677 67.2433 35.86 66.8386 36.0447 66.491C36.2294 66.1433 36.4874 65.8772 36.8188 65.6925C37.1556 65.5023 37.5412 65.4073 37.9758 65.4073C38.3995 65.4073 38.7743 65.4996 39.1002 65.6843C39.4262 65.869 39.676 66.1243 39.8499 66.4502C40.0291 66.7707 40.1188 67.1347 40.1188 67.5421ZM39.3528 67.3873C39.3528 67.1048 39.2904 66.8631 39.1654 66.6621C39.0405 66.4557 38.8694 66.3009 38.6521 66.1977C38.4402 66.089 38.2039 66.0347 37.9432 66.0347C37.5684 66.0347 37.2479 66.1542 36.9817 66.3932C36.721 66.6322 36.5716 66.9636 36.5336 67.3873H39.3528ZM45.1716 67.5421C45.1716 67.6833 45.1634 67.8327 45.1471 67.9902H41.5782C41.6054 68.4302 41.7548 68.7752 42.0264 69.0251C42.3034 69.2695 42.6375 69.3917 43.0286 69.3917C43.3491 69.3917 43.6153 69.3184 43.8271 69.1717C44.0444 69.0196 44.1965 68.8186 44.2834 68.5688H45.0819C44.9624 68.9979 44.7234 69.3483 44.3649 69.6199C44.0064 69.886 43.561 70.0191 43.0286 70.0191C42.6049 70.0191 42.2247 69.9241 41.8879 69.7339C41.5565 69.5438 41.2958 69.2749 41.1056 68.9273C40.9155 68.5742 40.8205 68.1668 40.8205 67.7051C40.8205 67.2433 40.9128 66.8386 41.0975 66.491C41.2822 66.1433 41.5402 65.8772 41.8716 65.6925C42.2084 65.5023 42.594 65.4073 43.0286 65.4073C43.4523 65.4073 43.8271 65.4996 44.1531 65.6843C44.479 65.869 44.7289 66.1243 44.9027 66.4502C45.0819 66.7707 45.1716 67.1347 45.1716 67.5421ZM44.4056 67.3873C44.4056 67.1048 44.3432 66.8631 44.2182 66.6621C44.0933 66.4557 43.9222 66.3009 43.7049 66.1977C43.4931 66.089 43.2568 66.0347 42.996 66.0347C42.6212 66.0347 42.3007 66.1542 42.0345 66.3932C41.7738 66.6322 41.6244 66.9636 41.5864 67.3873H44.4056ZM47.0547 66.0917V68.7236C47.0547 68.9409 47.1009 69.0957 47.1933 69.188C47.2856 69.2749 47.4459 69.3184 47.674 69.3184H48.2199V69.9458H47.5518C47.1389 69.9458 46.8293 69.8507 46.6229 69.6606C46.4165 69.4705 46.3133 69.1581 46.3133 68.7236V66.0917H45.7347V65.4806H46.3133V64.3562H47.0547V65.4806H48.2199V66.0917H47.0547ZM49.5013 64.7554C49.3601 64.7554 49.2406 64.7065 49.1428 64.6088C49.045 64.511 48.9961 64.3915 48.9961 64.2502C48.9961 64.109 49.045 63.9895 49.1428 63.8917C49.2406 63.7939 49.3601 63.7451 49.5013 63.7451C49.6371 63.7451 49.7512 63.7939 49.8435 63.8917C49.9413 63.9895 49.9902 64.109 49.9902 64.2502C49.9902 64.3915 49.9413 64.511 49.8435 64.6088C49.7512 64.7065 49.6371 64.7554 49.5013 64.7554ZM49.8598 65.4806V69.9458H49.1183V65.4806H49.8598ZM53.2991 65.3991C53.8423 65.3991 54.2823 65.5648 54.6191 65.8962C54.9559 66.2221 55.1243 66.6947 55.1243 67.3139V69.9458H54.3909V67.4199C54.3909 66.9744 54.2796 66.6349 54.0569 66.4014C53.8342 66.1623 53.53 66.0428 53.1443 66.0428C52.7532 66.0428 52.4408 66.1651 52.2072 66.4095C51.9791 66.6539 51.865 67.0098 51.865 67.4769V69.9458H51.1235V65.4806H51.865V66.1162C52.0117 65.888 52.21 65.7115 52.4598 65.5865C52.7151 65.4616 52.9949 65.3991 53.2991 65.3991ZM58.177 65.4073C58.5627 65.4073 58.8994 65.4915 59.1873 65.6599C59.4807 65.8283 59.698 66.0401 59.8392 66.2954V65.4806H60.5888V70.0436C60.5888 70.451 60.5019 70.8122 60.3281 71.1273C60.1543 71.4478 59.9044 71.6977 59.5785 71.8769C59.258 72.0562 58.8831 72.1458 58.454 72.1458C57.8673 72.1458 57.3785 72.0073 56.9873 71.7302C56.5962 71.4532 56.3654 71.0757 56.2947 70.5977H57.0281C57.1096 70.8693 57.278 71.0865 57.5333 71.2495C57.7886 71.4179 58.0955 71.5021 58.454 71.5021C58.8614 71.5021 59.1928 71.3744 59.4481 71.1191C59.7088 70.8638 59.8392 70.5053 59.8392 70.0436V69.1065C59.6925 69.3673 59.4752 69.5846 59.1873 69.7584C58.8994 69.9322 58.5627 70.0191 58.177 70.0191C57.7804 70.0191 57.4192 69.9214 57.0933 69.7258C56.7728 69.5302 56.5202 69.2559 56.3355 68.9028C56.1508 68.5498 56.0585 68.1478 56.0585 67.6969C56.0585 67.2406 56.1508 66.8414 56.3355 66.4991C56.5202 66.1515 56.7728 65.8826 57.0933 65.6925C57.4192 65.5023 57.7804 65.4073 58.177 65.4073ZM59.8392 67.7051C59.8392 67.3683 59.7713 67.0749 59.6355 66.8251C59.4997 66.5752 59.315 66.3851 59.0814 66.2547C58.8533 66.1189 58.6007 66.051 58.3236 66.051C58.0466 66.051 57.794 66.1162 57.5659 66.2465C57.3377 66.3769 57.1557 66.567 57.0199 66.8169C56.8841 67.0668 56.8162 67.3601 56.8162 67.6969C56.8162 68.0391 56.8841 68.3379 57.0199 68.5932C57.1557 68.8431 57.3377 69.0359 57.5659 69.1717C57.794 69.3021 58.0466 69.3673 58.3236 69.3673C58.6007 69.3673 58.8533 69.3021 59.0814 69.1717C59.315 69.0359 59.4997 68.8431 59.6355 68.5932C59.7713 68.3379 59.8392 68.0418 59.8392 67.7051ZM64.7556 66.3117C64.9077 66.0456 65.1305 65.8283 65.4238 65.6599C65.7171 65.4915 66.0512 65.4073 66.426 65.4073C66.828 65.4073 67.1892 65.5023 67.5097 65.6925C67.8302 65.8826 68.0828 66.1515 68.2675 66.4991C68.4522 66.8414 68.5445 67.2406 68.5445 67.6969C68.5445 68.1478 68.4522 68.5498 68.2675 68.9028C68.0828 69.2559 67.8275 69.5302 67.5016 69.7258C67.1811 69.9214 66.8226 70.0191 66.426 70.0191C66.0403 70.0191 65.7008 69.9349 65.4075 69.7665C65.1196 69.5981 64.9023 69.3836 64.7556 69.1228V69.9458H64.0142V63.9162H64.7556V66.3117ZM67.7868 67.6969C67.7868 67.3601 67.7189 67.0668 67.5831 66.8169C67.4473 66.567 67.2626 66.3769 67.029 66.2465C66.8008 66.1162 66.5482 66.051 66.2712 66.051C65.9996 66.051 65.747 66.1189 65.5134 66.2547C65.2853 66.3851 65.1006 66.5779 64.9593 66.8332C64.8235 67.0831 64.7556 67.3737 64.7556 67.7051C64.7556 68.0418 64.8235 68.3379 64.9593 68.5932C65.1006 68.8431 65.2853 69.0359 65.5134 69.1717C65.747 69.3021 65.9996 69.3673 66.2712 69.3673C66.5482 69.3673 66.8008 69.3021 67.029 69.1717C67.2626 69.0359 67.4473 68.8431 67.5831 68.5932C67.7189 68.3379 67.7868 68.0391 67.7868 67.6969ZM73.3665 65.4806L70.6776 72.048H69.9116L70.7916 69.8969L68.9909 65.4806H69.8139L71.2153 69.0984L72.6005 65.4806H73.3665ZM79.1441 64.2665V68.4628C79.1441 68.93 79.0002 69.3048 78.7123 69.5873C78.4244 69.8643 78.0441 70.0028 77.5715 70.0028C77.0935 70.0028 76.7106 69.8616 76.4226 69.5791C76.1347 69.2912 75.9908 68.9001 75.9908 68.4058H76.7323C76.7377 68.6828 76.8083 68.9083 76.9441 69.0821C77.0854 69.2559 77.2945 69.3428 77.5715 69.3428C77.8486 69.3428 78.055 69.2614 78.1908 69.0984C78.3266 68.93 78.3945 68.7181 78.3945 68.4628V64.2665H79.1441ZM82.5523 70.0191C82.134 70.0191 81.7538 69.9241 81.4115 69.7339C81.0748 69.5438 80.8086 69.2749 80.613 68.9273C80.4229 68.5742 80.3278 68.1668 80.3278 67.7051C80.3278 67.2488 80.4256 66.8468 80.6212 66.4991C80.8222 66.146 81.0938 65.8772 81.436 65.6925C81.7782 65.5023 82.1612 65.4073 82.5849 65.4073C83.0086 65.4073 83.3915 65.5023 83.7338 65.6925C84.076 65.8772 84.3449 66.1433 84.5404 66.491C84.7414 66.8386 84.8419 67.2433 84.8419 67.7051C84.8419 68.1668 84.7387 68.5742 84.5323 68.9273C84.3313 69.2749 84.057 69.5438 83.7093 69.7339C83.3617 69.9241 82.976 70.0191 82.5523 70.0191ZM82.5523 69.3673C82.8185 69.3673 83.0683 69.3048 83.3019 69.1799C83.5355 69.0549 83.7229 68.8675 83.8641 68.6177C84.0108 68.3678 84.0841 68.0636 84.0841 67.7051C84.0841 67.3465 84.0135 67.0423 83.8723 66.7925C83.7311 66.5426 83.5464 66.3579 83.3182 66.2384C83.0901 66.1135 82.8429 66.051 82.5767 66.051C82.3051 66.051 82.0552 66.1135 81.8271 66.2384C81.6044 66.3579 81.4251 66.5426 81.2893 66.7925C81.1535 67.0423 81.0856 67.3465 81.0856 67.7051C81.0856 68.069 81.1508 68.3759 81.2812 68.6258C81.417 68.8757 81.5962 69.0631 81.819 69.188C82.0417 69.3075 82.2861 69.3673 82.5523 69.3673ZM88.0331 65.3991C88.3699 65.3991 88.6741 65.4725 88.9457 65.6191C89.2173 65.7604 89.4292 65.9749 89.5813 66.2628C89.7388 66.5507 89.8176 66.9011 89.8176 67.3139V69.9458H89.0842V67.4199C89.0842 66.9744 88.9729 66.6349 88.7502 66.4014C88.5274 66.1623 88.2232 66.0428 87.8376 66.0428C87.4465 66.0428 87.1341 66.1651 86.9005 66.4095C86.6724 66.6539 86.5583 67.0098 86.5583 67.4769V69.9458H85.8168V63.9162H86.5583V66.1162C86.705 65.888 86.906 65.7115 87.1613 65.5865C87.422 65.4616 87.7126 65.3991 88.0331 65.3991ZM93.2043 65.3991C93.7475 65.3991 94.1875 65.5648 94.5243 65.8962C94.8611 66.2221 95.0295 66.6947 95.0295 67.3139V69.9458H94.2962V67.4199C94.2962 66.9744 94.1848 66.6349 93.9621 66.4014C93.7394 66.1623 93.4352 66.0428 93.0495 66.0428C92.6584 66.0428 92.3461 66.1651 92.1125 66.4095C91.8843 66.6539 91.7703 67.0098 91.7703 67.4769V69.9458H91.0288V65.4806H91.7703V66.1162C91.9169 65.888 92.1152 65.7115 92.3651 65.5865C92.6204 65.4616 92.9001 65.3991 93.2043 65.3991Z" fill="#DFECF4"/>
<rect x="27.0225" y="115.863" width="147.885" height="24.7851" rx="4.88889" fill="#4891FF"/>
<path d="M94.904 124.96V129.858C94.904 130.465 94.7182 130.944 94.3466 131.296C93.9816 131.648 93.4992 131.824 92.8995 131.824C92.2998 131.824 91.8142 131.648 91.4426 131.296C91.0776 130.944 90.8951 130.465 90.8951 129.858H92.0195C92.026 130.158 92.101 130.396 92.2444 130.572C92.3943 130.748 92.6127 130.836 92.8995 130.836C93.1863 130.836 93.4047 130.748 93.5546 130.572C93.7045 130.39 93.7795 130.152 93.7795 129.858V124.96H94.904ZM99.0542 131.843C98.5457 131.843 98.0862 131.729 97.6755 131.501C97.2648 131.266 96.9422 130.941 96.7075 130.523C96.4728 130.1 96.3555 129.611 96.3555 129.057C96.3555 128.509 96.4761 128.024 96.7173 127.6C96.9585 127.176 97.2876 126.85 97.7048 126.622C98.122 126.394 98.5881 126.28 99.1031 126.28C99.618 126.28 100.084 126.394 100.501 126.622C100.918 126.85 101.248 127.176 101.489 127.6C101.73 128.024 101.851 128.509 101.851 129.057C101.851 129.604 101.727 130.09 101.479 130.514C101.231 130.937 100.892 131.266 100.462 131.501C100.038 131.729 99.5691 131.843 99.0542 131.843ZM99.0542 130.875C99.341 130.875 99.6082 130.807 99.8559 130.67C100.11 130.533 100.315 130.328 100.472 130.054C100.628 129.78 100.707 129.448 100.707 129.057C100.707 128.666 100.632 128.336 100.482 128.069C100.332 127.795 100.133 127.59 99.8853 127.453C99.6376 127.316 99.3703 127.248 99.0835 127.248C98.7967 127.248 98.5294 127.316 98.2817 127.453C98.0405 127.59 97.8482 127.795 97.7048 128.069C97.5614 128.336 97.4897 128.666 97.4897 129.057C97.4897 129.637 97.6364 130.087 97.9297 130.406C98.2296 130.719 98.6044 130.875 99.0542 130.875ZM103.52 125.654C103.318 125.654 103.148 125.586 103.011 125.449C102.874 125.312 102.806 125.142 102.806 124.94C102.806 124.738 102.874 124.569 103.011 124.432C103.148 124.295 103.318 124.226 103.52 124.226C103.715 124.226 103.881 124.295 104.018 124.432C104.155 124.569 104.224 124.738 104.224 124.94C104.224 125.142 104.155 125.312 104.018 125.449C103.881 125.586 103.715 125.654 103.52 125.654ZM104.067 126.368V131.755H102.953V126.368H104.067ZM108.249 126.28C108.673 126.28 109.051 126.368 109.383 126.544C109.722 126.72 109.986 126.981 110.175 127.326C110.364 127.672 110.459 128.089 110.459 128.578V131.755H109.354V128.744C109.354 128.261 109.233 127.893 108.992 127.639C108.751 127.378 108.422 127.248 108.004 127.248C107.587 127.248 107.255 127.378 107.007 127.639C106.766 127.893 106.645 128.261 106.645 128.744V131.755H105.531V126.368H106.645V126.984C106.828 126.762 107.059 126.589 107.34 126.466C107.626 126.342 107.929 126.28 108.249 126.28Z" fill="white"/>
<path d="M62.1485 90.8523V97.2404C62.1485 98.127 61.8921 98.8179 61.3793 99.3133C60.8665 99.8 60.1799 100.043 59.3195 100.043C58.4503 100.043 57.7463 99.7914 57.2075 99.2873C56.6773 98.7832 56.4122 98.0792 56.4122 97.1753H58.2374C58.2461 97.5664 58.3373 97.8706 58.5112 98.0879C58.6937 98.3051 58.9544 98.4138 59.2934 98.4138C59.6237 98.4138 59.8757 98.3095 60.0495 98.1009C60.2234 97.8923 60.3103 97.6055 60.3103 97.2404V90.8523H62.1485ZM63.8083 96.3148C63.8083 95.5847 63.9517 94.9372 64.2385 94.3723C64.534 93.8074 64.9295 93.3728 65.4249 93.0686C65.929 92.7644 66.4896 92.6123 67.1067 92.6123C67.6455 92.6123 68.1148 92.7209 68.5147 92.9382C68.9231 93.1555 69.2491 93.4293 69.4924 93.7596V92.7296H71.3307V99.9521H69.4924V98.8961C69.2578 99.2351 68.9318 99.5176 68.5147 99.7436C68.1062 99.9608 67.6325 100.069 67.0936 100.069C66.4852 100.069 65.929 99.913 65.4249 99.6001C64.9295 99.2873 64.534 98.8483 64.2385 98.2834C63.9517 97.7098 63.8083 97.0536 63.8083 96.3148ZM69.4924 96.3409C69.4924 95.8976 69.4055 95.5196 69.2317 95.2067C69.0579 94.8851 68.8232 94.6417 68.5277 94.4766C68.2322 94.3028 67.9149 94.2159 67.576 94.2159C67.237 94.2159 66.9241 94.2984 66.6373 94.4636C66.3505 94.6287 66.1158 94.872 65.9333 95.1936C65.7595 95.5065 65.6726 95.8802 65.6726 96.3148C65.6726 96.7494 65.7595 97.1318 65.9333 97.4621C66.1158 97.7837 66.3505 98.0314 66.6373 98.2052C66.9328 98.379 67.2457 98.4659 67.576 98.4659C67.9149 98.4659 68.2322 98.3834 68.5277 98.2182C68.8232 98.0444 69.0579 97.801 69.2317 97.4881C69.4055 97.1666 69.4924 96.7841 69.4924 96.3409ZM77.1156 92.6253C77.9761 92.6253 78.6714 92.8991 79.2016 93.4467C79.7317 93.9855 79.9968 94.7417 79.9968 95.7151V99.9521H78.1716V95.9628C78.1716 95.3892 78.0282 94.9503 77.7414 94.6461C77.4546 94.3332 77.0635 94.1767 76.5681 94.1767C76.064 94.1767 75.6642 94.3332 75.3687 94.6461C75.0819 94.9503 74.9384 95.3892 74.9384 95.9628V99.9521H73.1133V92.7296H74.9384V93.6292C75.1818 93.3163 75.4903 93.0729 75.8641 92.8991C76.2465 92.7166 76.6637 92.6253 77.1156 92.6253ZM84.4087 92.1299V90.4481H87.5507V99.9521H85.6733V92.1299H84.4087ZM95.4029 91.8301L91.9351 99.9521H90.0838L93.5777 92.0387H89.1191V90.4742H95.4029V91.8301ZM99.3419 96.3148C99.3419 95.5847 99.4853 94.9372 99.7721 94.3723C100.068 93.8074 100.463 93.3728 100.958 93.0686C101.463 92.7644 102.023 92.6123 102.64 92.6123C103.179 92.6123 103.648 92.7209 104.048 92.9382C104.457 93.1555 104.783 93.4293 105.026 93.7596V92.7296H106.864V99.9521H105.026V98.8961C104.791 99.2351 104.465 99.5176 104.048 99.7436C103.64 99.9608 103.166 100.069 102.627 100.069C102.019 100.069 101.463 99.913 100.958 99.6001C100.463 99.2873 100.068 98.8483 99.7721 98.2834C99.4853 97.7098 99.3419 97.0536 99.3419 96.3148ZM105.026 96.3409C105.026 95.8976 104.939 95.5196 104.765 95.2067C104.591 94.8851 104.357 94.6417 104.061 94.4766C103.766 94.3028 103.449 94.2159 103.11 94.2159C102.771 94.2159 102.458 94.2984 102.171 94.4636C101.884 94.6287 101.649 94.872 101.467 95.1936C101.293 95.5065 101.206 95.8802 101.206 96.3148C101.206 96.7494 101.293 97.1318 101.467 97.4621C101.649 97.7837 101.884 98.0314 102.171 98.2052C102.466 98.379 102.779 98.4659 103.11 98.4659C103.449 98.4659 103.766 98.3834 104.061 98.2182C104.357 98.0444 104.591 97.801 104.765 97.4881C104.939 97.1666 105.026 96.7841 105.026 96.3409ZM110.772 94.2289V97.7228C110.772 97.9662 110.828 98.1443 110.941 98.2573C111.063 98.3616 111.263 98.4138 111.541 98.4138H112.388V99.9521H111.241C109.703 99.9521 108.934 99.2047 108.934 97.7098V94.2289H108.073V92.7296H108.934V90.9436H110.772V92.7296H112.388V94.2289H110.772ZM118.711 97.2796C118.781 97.662 118.937 97.9575 119.18 98.1661C119.433 98.366 119.767 98.4659 120.184 98.4659C120.723 98.4659 121.114 98.2443 121.358 97.801C121.601 97.3491 121.723 96.5929 121.723 95.5326C121.523 95.8107 121.24 96.028 120.875 96.1844C120.519 96.3409 120.132 96.4191 119.715 96.4191C119.159 96.4191 118.655 96.3061 118.203 96.0801C117.759 95.8455 117.407 95.5022 117.147 95.0502C116.886 94.5896 116.756 94.0333 116.756 93.3815C116.756 92.4167 117.042 91.6519 117.616 91.087C118.19 90.5133 118.972 90.2265 119.963 90.2265C121.197 90.2265 122.066 90.622 122.57 91.4129C123.083 92.2038 123.339 93.3945 123.339 94.985C123.339 96.1149 123.239 97.0405 123.039 97.7619C122.848 98.4833 122.514 99.0309 122.036 99.4046C121.566 99.7783 120.923 99.9652 120.106 99.9652C119.463 99.9652 118.915 99.8435 118.463 99.6001C118.011 99.3481 117.664 99.0222 117.42 98.6224C117.186 98.2139 117.051 97.7663 117.016 97.2796H118.711ZM120.093 94.9329C120.545 94.9329 120.901 94.7938 121.162 94.5157C121.423 94.2376 121.553 93.8639 121.553 93.3945C121.553 92.8817 121.414 92.4863 121.136 92.2081C120.867 91.9213 120.497 91.7779 120.028 91.7779C119.559 91.7779 119.185 91.9257 118.907 92.2212C118.637 92.508 118.503 92.8904 118.503 93.3684C118.503 93.8291 118.633 94.2072 118.894 94.5027C119.163 94.7895 119.563 94.9329 120.093 94.9329ZM130.548 98.2182H126.924L126.324 99.9521H124.408L127.68 90.8393H129.805L133.078 99.9521H131.148L130.548 98.2182ZM130.053 96.7581L128.736 92.9513L127.42 96.7581H130.053ZM144.222 90.8523V99.9521H142.397V94.0333L139.959 99.9521H138.577L136.126 94.0333V99.9521H134.301V90.8523H136.374L139.268 97.6185L142.162 90.8523H144.222Z" fill="white"/>
</svg>
